<?xml version="1.0" encoding="UTF-8"?>
<svg width="199px" height="172px" viewBox="0 0 199 172" version="1.1" xmlns="http://www.w3.org/2000/svg" xmlns:xlink="http://www.w3.org/1999/xlink">
    <title>Groupfood</title>
    <defs>
        <path d="M0.144,76.823 C0.144,118.925 34.274,153.055 76.376,153.055 C118.478,153.055 152.608,118.925 152.608,76.823 C152.608,34.721 118.478,0.59 76.376,0.59 C34.274,0.59 0.144,34.721 0.144,76.823" id="path-1"></path>
        <linearGradient x1="0%" y1="50.0003279%" x2="100%" y2="50.0003279%" id="linearGradient-3">
            <stop stop-color="#D9D9D9" offset="0%"></stop>
            <stop stop-color="#B0B0B0" offset="100%"></stop>
        </linearGradient>
    </defs>
    <g id="Page-1" stroke="none" stroke-width="1" fill="none" fill-rule="evenodd">
        <g id="1957668" transform="translate(-247.000000, -224.000000)">
            <g id="Group" transform="translate(247.489742, 224.477696)">
                <path d="M27.039,125.791 C56.129,125.174 79.789,117.82 104.103,101.837 C103.486,72.746 96.132,49.087 80.149,24.773 C51.058,25.39 27.399,32.745 3.084,48.728 C3.702,77.818 11.056,101.477 27.039,125.791" id="Fill-192" fill="#008D36"></path>
                <path d="M27.039,125.791 L27.104,128.84 C41.887,128.527 55.38,126.495 68.267,122.488 C81.156,118.483 93.423,112.508 105.778,104.385 L107.188,103.458 L107.152,101.772 C106.839,86.989 104.807,73.496 100.8,60.609 C96.795,47.72 90.82,35.453 82.697,23.098 L81.77,21.688 L80.084,21.724 C65.301,22.037 51.808,24.069 38.92,28.076 C26.032,32.081 13.765,38.057 1.41,46.18 L0,47.106 L0.036,48.792 C0.349,63.575 2.381,77.068 6.388,89.956 C10.393,102.844 16.368,115.111 24.491,127.466 L25.418,128.876 L27.104,128.84 L27.039,125.791 L29.587,124.117 C21.727,112.157 16.034,100.438 12.212,88.146 C8.392,75.852 6.438,62.97 6.133,48.663 L3.084,48.728 L4.759,51.276 C16.719,43.416 28.438,37.722 40.731,33.9 C53.024,30.08 65.906,28.126 80.213,27.821 L80.149,24.773 L77.6,26.448 C85.46,38.407 91.154,50.126 94.976,62.419 C98.796,74.712 100.75,87.594 101.055,101.901 L104.103,101.837 L102.428,99.289 C90.469,107.149 78.75,112.842 66.457,116.664 C54.164,120.484 41.282,122.438 26.974,122.743 L27.039,125.791 L29.587,124.117 L27.039,125.791" id="Fill-193" fill="#39A935"></path>
                <path d="M136.237,167.301 C161.885,153.562 179.639,136.279 194.064,111.01 C180.324,85.361 163.042,67.608 137.772,53.183 C112.123,66.922 94.37,84.205 79.945,109.475 C93.685,135.123 110.967,152.877 136.237,167.301" id="Fill-194" fill="#008D36"></path>
                <path d="M136.237,167.301 L137.677,169.989 C150.711,163.008 161.816,155.079 171.486,145.664 C181.158,136.251 189.383,125.363 196.712,112.522 L197.548,111.057 L196.752,109.57 C189.77,96.536 181.842,85.431 172.427,75.761 C163.013,66.089 152.126,57.864 139.284,50.535 L137.819,49.699 L136.332,50.495 C123.298,57.476 112.193,65.405 102.523,74.82 C92.851,84.234 84.626,95.121 77.297,107.963 L76.461,109.428 L77.257,110.914 C84.238,123.949 92.167,135.054 101.582,144.724 C110.996,154.396 121.883,162.62 134.725,169.95 L136.19,170.786 L137.677,169.989 L136.237,167.301 L137.748,164.653 C125.321,157.558 114.932,149.693 105.952,140.47 C96.974,131.245 89.392,120.649 82.633,108.035 L79.945,109.475 L82.593,110.986 C89.689,98.559 97.553,88.17 106.777,79.19 C116.002,70.212 126.598,62.629 139.212,55.871 L137.772,53.183 L136.26,55.831 C148.688,62.927 159.077,70.791 168.057,80.014 C177.035,89.239 184.617,99.835 191.376,112.45 L194.064,111.01 L191.415,109.498 C184.32,121.926 176.456,132.314 167.232,141.294 C158.007,150.273 147.411,157.855 134.797,164.613 L136.237,167.301 L137.748,164.653 L136.237,167.301" id="Fill-195" fill="#39A935"></path>
                <g id="Group-198" transform="translate(25.654000, 4.405000)">
                    <mask id="mask-2" fill="white">
                        <use xlink:href="#path-1"></use>
                    </mask>
                    <g id="Clip-197"></g>
                    <path d="M0.144,76.823 C0.144,118.925 34.274,153.055 76.376,153.055 C118.478,153.055 152.608,118.925 152.608,76.823 C152.608,34.721 118.478,0.59 76.376,0.59 C34.274,0.59 0.144,34.721 0.144,76.823" id="Fill-196" fill="url(#linearGradient-3)" mask="url(#mask-2)"></path>
                </g>
                <path d="M102.03,8.71 C59.928,8.71 32.91,39.126 32.91,81.228 C32.91,123.33 59.928,162.688 102.03,162.688 C144.132,162.688 178.306,123.33 178.306,81.228 C178.306,39.126 144.132,8.71 102.03,8.71 M102.03,39.203 C114.898,39.203 126.666,43.566 135.167,51.488 C140.936,56.865 147.814,66.389 147.814,81.228 C147.814,107.902 125.992,132.195 102.03,132.195 C91.548,132.195 82.637,127.675 75.542,118.76 C67.828,109.064 63.403,95.384 63.403,81.228 C63.403,68.194 67.056,57.394 73.967,49.994 C80.655,42.833 90.097,39.203 102.03,39.203" id="Fill-199" fill="#FFFFFF"></path>
                <path d="M26.66,80.228 L22.8489897,80.228 C22.853,102.29 31.551,122.954 45.775,138.144 C52.89,145.74 61.397,151.973 70.911,156.311 C80.423,160.649 90.946,163.085 102.03,163.085 C113.115,163.085 123.765,160.651 133.479,156.325 C148.052,149.833 160.53,139.103 169.395,125.86 C178.257,112.618 183.514,96.827 183.514,80.228 C183.514,69.165 181.172,58.79 176.959,49.491 C170.639,35.537 160.132,24.015 147.106,15.996 C134.079,7.975 118.518,3.44099852 102.03,3.44099852 C80.047,3.437 60.23,11.517 45.923,25.197 C31.609,38.863 22.838,58.165 22.8489897,80.228 L30.472,80.228 C30.483,60.188 38.346,43.003 51.191,30.707 C64.044,18.426 81.912,11.068 102.03,11.064 C122.148,11.063 140.649,18.444 154.078,30.761 C160.794,36.92 166.242,44.307 170.015,52.636 C173.786,60.967 175.889,70.24 175.891,80.228 C175.897,100.192 167.439,119.038 153.927,132.876 C147.175,139.792 139.173,145.445 130.378,149.361 C121.581,153.277 111.997,155.461 102.03,155.461 C92.064,155.46 82.64,153.279 74.073,149.375 C61.227,143.52 50.313,133.763 42.621,121.692 C34.929,109.62 30.471,95.26 30.472,80.228 L26.66,80.228" id="Fill-200" stroke-opacity="0.515265618" stroke="#9C6B6B" fill="#FFFFFF"></path>
                <path d="M102.03,9.71 C59.928,9.71 32.91,40.126 32.91,82.228 C32.91,124.33 59.928,163.688 102.03,163.688 C144.132,163.688 178.306,124.33 178.306,82.228 C178.306,40.126 144.132,9.71 102.03,9.71 M102.03,14.808 C121.092,14.808 138.767,21.497 151.799,33.642 C164.96,45.907 172.208,62.807 172.208,81.228 C172.208,100.104 164.644,119.205 151.455,133.631 C137.921,148.436 120.368,156.59 102.03,156.59 C79.251,156.59 64.673,144.278 56.454,133.949 C45.367,120.016 39.008,100.8 39.008,81.228 C39.008,41.5 64.335,14.808 102.03,14.808" id="Fill-201" fill="#D9D9D9"></path>
                <path d="M119.099,48.845 C122.415,49.147 125.612,50.277 128.41,52.082 C136.753,57.462 142.375,66.852 143.178,76.746 C143.981,86.641 139.946,96.815 132.58,103.469 C128.315,107.323 122.908,110.04 117.181,110.534 C115.39,110.688 113.559,110.623 111.839,110.102 C106.616,108.522 103.319,102.309 104.936,97.098 C106.393,92.404 111.016,89.151 112.239,84.39 C113.054,81.214 112.221,77.866 111.261,74.731 C110.201,71.268 108.977,67.831 108.47,64.245 C107.963,60.66 108.229,56.843 110.005,53.686 C111.781,50.53 115.492,48.517 119.099,48.845" id="Fill-202" fill="#B1B1B1"></path>
                <path d="M103,79.733 C111.167,91.724 125.03,99.645 139.506,100.591 C137.019,96.418 134.014,92.553 130.584,89.112 C140.597,94.656 153.53,90.562 162.355,83.274 C165.024,81.07 167.626,78.26 167.825,74.805 C168.023,71.35 164.409,67.735 161.27,69.193 C165.182,65.568 168.193,60.979 169.961,55.947 C170.973,53.066 171.571,49.855 170.52,46.987 C169.522,44.264 167.167,42.241 164.624,40.846 C155.653,35.924 143.34,38.265 136.8,46.135 C136.776,40.973 130.899,37.333 125.783,38.025 C120.667,38.717 116.494,42.469 113.316,46.537 C106.812,54.86 103.044,65.285 102.723,75.843 L103,79.733" id="Fill-203" fill="#39A935"></path>
                <path d="M103.631,79.2 C109.03,86.751 116.14,92.675 124.742,96.252 C126.417,96.949 136.485,100.936 137.502,99.585 C138.529,98.22 130.935,90.665 129.953,89.645 C129.408,89.078 130.121,87.971 130.86,88.333 C136.93,91.307 143.21,91.411 149.587,89.364 C152.186,88.529 154.631,87.451 156.982,86.053 C158.684,85.039 160.298,83.903 161.822,82.643 C165.841,79.88 165.708,75.667 161.425,70.004 C160.559,70.213 160.194,69.101 160.737,68.562 C168.36,60.983 176.093,46.053 161.895,40.509 C153.346,37.171 143.553,39.936 137.478,46.608 C137.052,47.075 136.081,47.077 135.989,46.29 C134.976,37.666 124.988,37.615 119.356,41.646 C114.921,44.82 111.682,49.782 109.201,54.538 C105.148,62.304 103.188,70.842 103.812,79.578 C103.887,80.628 102.265,80.947 102.189,79.888 C101.262,66.905 105.725,53.277 114.686,43.679 C118.337,39.769 123.444,36.318 129.058,37.306 C133.63,38.11 137.07,41.373 137.612,45.98 C137.115,45.874 136.619,45.768 136.123,45.662 C143.511,37.548 156.166,34.602 165.844,40.625 C177.655,47.976 169.212,62.458 161.803,69.824 C161.574,69.343 161.344,68.862 161.115,68.381 C164.483,67.566 167.565,69.549 168.434,72.974 C169.47,77.056 166.479,80.672 163.676,83.207 C154.782,91.25 141.476,95.361 130.309,89.891 C130.611,89.453 130.913,89.016 131.215,88.579 C134.666,92.165 137.631,96.01 140.252,100.236 C140.586,100.775 140.019,101.466 139.448,101.415 C124.435,100.089 111.141,92.534 102.37,80.266 C101.756,79.408 103.011,78.333 103.631,79.2" id="Fill-204" fill="#39A935"></path>
                <path d="M155.386,50.415 C154.893,50.029 154.386,49.658 153.868,49.305 C152.911,48.235 151.876,47.217 150.765,46.261 C151.118,45.566 151.468,44.922 151.794,44.347 C152.164,43.693 151.587,43.024 151.035,43.024 C150.81,43.024 150.59,43.134 150.439,43.401 C150.122,43.959 149.794,44.561 149.465,45.198 C149.003,44.839 148.529,44.491 148.044,44.153 C147.75,43.948 147.453,43.748 147.155,43.554 C149.414,42.692 151.845,42.244 154.263,42.244 C157.153,42.244 160.021,42.885 162.547,44.23 C160.192,46.388 157.804,48.45 155.386,50.415" id="Fill-205" fill="#238C20"></path>
                <path d="M164.006,49.413 C146.254,64.983 125.576,76.504 102.362,81.411 C101.319,81.632 101.012,80.008 102.052,79.788 C125.021,74.933 145.378,63.554 162.939,48.151 C163.739,47.45 164.807,48.71 164.006,49.413" id="Fill-206" fill="#006633"></path>
                <path d="M155.335,55.488 C157.879,56.419 160.524,56.167 162.867,54.815 C163.789,54.282 164.494,55.777 163.578,56.306 C160.88,57.863 157.705,58.115 154.784,57.045 C153.787,56.68 154.335,55.122 155.335,55.488" id="Fill-207" fill="#006633"></path>
                <path d="M146.78,60.77 C144.419,55.533 147.846,47.974 150.439,43.401 C150.962,42.478 152.315,43.427 151.794,44.347 C149.555,48.296 146.209,55.486 148.271,60.059 C148.708,61.028 147.218,61.742 146.78,60.77" id="Fill-208" fill="#006633"></path>
                <path d="M153.748,79.12 C144.478,82.342 134.685,80.157 127.676,73.281 C126.918,72.537 128.183,71.474 128.938,72.214 C135.361,78.515 144.537,80.583 153.036,77.629 C154.031,77.283 154.752,78.771 153.748,79.12" id="Fill-209" fill="#006633"></path>
                <path d="M116.877,76.93 C111.31,68.387 119.178,56.666 123.666,49.376 C124.224,48.471 125.578,49.417 125.021,50.322 C121.111,56.673 113.16,68.222 118.139,75.863 C118.711,76.742 117.458,77.821 116.877,76.93" id="Fill-210" fill="#006633"></path>
                <path d="M116.72,63.912 C119.564,62.877 121.798,60.966 123.264,58.32 C123.778,57.393 125.131,58.342 124.619,59.266 C123.031,62.131 120.509,64.283 117.432,65.403 C116.44,65.764 115.72,64.276 116.72,63.912" id="Fill-211" fill="#006633"></path>
                <path d="M136.265,66.59 C136.312,62.817 137.103,59.224 138.651,55.783 C139.084,54.82 140.645,55.363 140.208,56.334 C138.72,59.643 137.958,63.081 137.913,66.708 C137.9,67.773 136.252,67.649 136.265,66.59" id="Fill-212" fill="#006633"></path>
                <path d="M140.836,78.63 C142.4,74.345 147.781,72.628 151.718,71.323 C152.715,70.993 153.438,72.48 152.429,72.814 C149.001,73.95 143.756,75.448 142.393,79.181 C142.028,80.179 140.47,79.63 140.836,78.63" id="Fill-213" fill="#006633"></path>
                <path d="M123.763,90.515 C118.987,87.937 111.952,84.471 109.975,78.992 C109.617,78 111.105,77.28 111.466,78.281 C113.294,83.349 120.252,86.754 124.708,89.16 C125.641,89.663 124.69,91.016 123.763,90.515" id="Fill-214" fill="#006633"></path>
                <path d="M164.4,62.541 C164.144,61.882 163.864,61.235 163.562,60.601 C163.937,59.855 164.353,59.037 164.788,58.207 C165.443,56.968 166.166,55.701 166.875,54.774 C167.549,53.836 168.208,53.261 168.208,53.261 C168.208,53.261 168.395,54.112 168.302,55.293 C168.246,56.484 167.87,58.021 167.123,59.442 C166.441,60.738 165.416,61.893 164.4,62.541" id="Fill-215" fill="#65E25F"></path>
                <path d="M124.829,48.033 C111.312,53.303 100.485,65.037 96.317,78.933 C100.942,77.444 105.382,75.383 109.504,72.812 C101.856,81.327 102.946,94.848 108.07,105.082 C109.619,108.177 111.774,111.344 115.097,112.312 C118.42,113.279 122.754,110.568 122.036,107.182 C124.692,111.807 128.489,115.77 132.996,118.621 C135.577,120.254 138.572,121.557 141.602,121.176 C144.48,120.814 146.979,118.972 148.909,116.807 C155.717,109.168 156.197,96.643 149.993,88.505 C155.03,89.639 159.894,84.728 160.367,79.587 C160.84,74.446 158.119,69.538 154.867,65.529 C148.214,57.325 138.9,51.315 128.683,48.635 L124.829,48.033" id="Fill-216" fill="#39A935"></path>
                <path d="M125.207,48.767 C116.638,52.336 109.271,57.936 103.856,65.517 C102.802,66.993 96.658,75.911 97.747,77.205 C98.847,78.512 107.913,72.805 109.126,72.077 C109.801,71.673 110.72,72.615 110.201,73.255 C105.942,78.504 104.433,84.6 104.999,91.274 C105.229,93.994 105.732,96.619 106.566,99.223 C107.173,101.109 107.919,102.936 108.804,104.704 C110.596,109.24 114.732,110.056 121.211,107.151 C121.201,106.261 122.367,106.155 122.771,106.804 C128.448,115.932 141.264,126.816 149.85,114.223 C155.02,106.64 154.52,96.476 149.381,89.06 C149.021,88.54 149.236,87.594 150.024,87.68 C158.656,88.626 160.945,78.905 158.279,72.512 C156.181,67.478 152.071,63.209 147.993,59.725 C141.333,54.033 133.452,50.21 124.798,48.859 C123.758,48.696 123.811,47.044 124.86,47.208 C137.721,49.216 150.001,56.62 157.345,67.505 C160.337,71.94 162.555,77.691 160.334,82.94 C158.524,87.215 154.574,89.837 149.963,89.331 C150.177,88.871 150.392,88.411 150.606,87.951 C156.857,96.971 156.891,109.964 148.851,118.045 C139.039,127.907 126.819,116.432 121.302,107.56 C121.822,107.444 122.342,107.329 122.862,107.213 C122.901,110.678 120.278,113.237 116.745,113.316 C112.535,113.411 109.681,109.685 107.839,106.384 C101.995,95.914 100.973,82.025 108.807,72.369 C109.166,72.761 109.524,73.154 109.882,73.546 C105.614,76.105 101.202,78.132 96.496,79.739 C95.896,79.944 95.349,79.236 95.527,78.691 C100.186,64.358 110.529,53.097 124.451,47.299 C125.425,46.893 126.192,48.357 125.207,48.767" id="Fill-217" fill="#39A935"></path>
                <path d="M146.077,114.023 C145.679,113.322 145.288,112.62 144.904,111.918 L145.045,111.914 L145.235,111.919 L145.426,111.914 L145.616,111.919 L145.806,111.914 L145.997,111.919 C146.565,111.919 147.127,111.888 147.68,111.828 C147.208,112.602 146.673,113.338 146.077,114.023" id="Fill-218" fill="#238C20"></path>
                <path d="M140.699,114.283 C129.506,93.492 122.914,70.757 123.337,47.035 C123.356,45.969 125.007,46.034 124.988,47.096 C124.57,70.569 131.095,92.959 142.168,113.527 C142.672,114.463 141.204,115.221 140.699,114.283" id="Fill-219" fill="#006633"></path>
                <path d="M136.723,104.472 C135.245,106.742 134.897,109.376 135.69,111.962 C136.002,112.98 134.388,113.333 134.078,112.321 C133.164,109.343 133.631,106.192 135.329,103.585 C135.908,102.695 137.304,103.579 136.723,104.472" id="Fill-220" fill="#006633"></path>
                <path d="M133.493,94.949 C139.126,93.823 145.724,98.858 149.6,102.409 C150.382,103.127 149.154,104.233 148.374,103.518 C145.028,100.451 138.77,95.578 133.852,96.562 C132.809,96.77 132.448,95.158 133.493,94.949" id="Fill-221" fill="#006633"></path>
                <path d="M114.049,97.626 C112.987,87.869 117.312,78.815 125.585,73.527 C126.48,72.955 127.232,74.426 126.341,74.996 C118.761,79.842 114.688,88.322 115.661,97.267 C115.775,98.314 114.164,98.683 114.049,97.626" id="Fill-222" fill="#006633"></path>
                <path d="M124.45,62.185 C134.024,58.675 143.681,68.971 149.779,74.979 C150.536,75.725 149.311,76.833 148.554,76.088 C143.241,70.853 133.769,60.515 125.206,63.653 C124.221,64.014 123.451,62.551 124.45,62.185" id="Fill-223" fill="#006633"></path>
                <path d="M137.171,64.951 C137.542,67.954 138.904,70.56 141.153,72.581 C141.942,73.29 140.714,74.396 139.928,73.69 C137.492,71.501 135.96,68.56 135.559,65.31 C135.429,64.263 137.041,63.895 137.171,64.951" id="Fill-224" fill="#006633"></path>
                <path d="M130.179,83.398 C133.845,84.289 137.169,85.866 140.176,88.146 C141.017,88.784 140.138,90.183 139.29,89.54 C136.399,87.348 133.219,85.834 129.695,84.977 C128.66,84.726 129.15,83.147 130.179,83.398" id="Fill-225" fill="#006633"></path>
                <path d="M117.421,85.152 C121.246,87.638 121.713,93.266 122.102,97.396 C122.2,98.441 120.589,98.812 120.489,97.755 C120.151,94.159 119.868,88.712 116.535,86.546 C115.644,85.967 116.528,84.572 117.421,85.152" id="Fill-226" fill="#006633"></path>
                <path d="M109.667,65.849 C113.25,61.773 118.205,55.694 123.988,54.997 C125.035,54.87 125.403,56.481 124.347,56.609 C118.997,57.254 114.119,63.271 110.775,67.074 C110.076,67.87 108.971,66.641 109.667,65.849" id="Fill-227" fill="#006633"></path>
                <path d="M136.007,117.515 C136.007,117.515 135.135,117.507 134.005,117.151 C132.857,116.83 131.444,116.119 130.226,115.073 C129.012,114.028 128.055,112.621 127.716,111.41 C127.694,111.345 127.674,111.281 127.655,111.218 L129.466,110.987 C130.219,111.608 131.08,112.325 131.954,113.074 C133.014,113.99 134.086,114.978 134.831,115.878 C135.594,116.745 136.007,117.515 136.007,117.515" id="Fill-228" fill="#65E25F"></path>
                <path d="M147.69,87.684 C150.982,73.555 147.422,57.991 138.314,46.698 C136.929,51.355 136.119,56.183 135.91,61.037 C133.209,49.914 121.438,43.171 110.099,41.613 C106.67,41.142 102.84,41.13 100.163,43.325 C97.487,45.519 97.274,50.626 100.473,51.949 C95.157,51.525 89.741,52.417 84.842,54.524 C82.036,55.73 79.268,57.465 77.87,60.18 C76.542,62.758 76.649,65.861 77.344,68.677 C79.798,78.611 89.859,86.086 100.079,85.568 C96.297,89.082 97.599,95.871 101.573,99.167 C105.546,102.462 111.133,102.992 116.279,102.575 C126.807,101.724 137.03,97.437 145.015,90.523 L147.69,87.684" id="Fill-229" fill="#39A935"></path>
                <path d="M146.87,87.581 C148.769,78.495 148.313,69.252 145.12,60.5 C144.499,58.796 140.614,48.688 138.931,48.854 C137.232,49.023 136.815,59.727 136.73,61.14 C136.682,61.925 135.385,62.15 135.15,61.361 C133.227,54.881 129.052,50.19 123.226,46.884 C120.852,45.537 118.403,44.468 115.782,43.685 C113.884,43.119 111.955,42.702 109.996,42.433 C105.241,41.348 102.231,44.298 100.965,51.285 C101.705,51.78 101.133,52.802 100.37,52.768 C89.631,52.292 73.408,56.713 78.944,70.913 C82.278,79.465 90.945,84.797 99.968,84.749 C100.6,84.746 101.259,85.459 100.742,86.06 C95.083,92.646 101.809,100.029 108.589,101.443 C113.928,102.557 119.773,101.579 124.952,100.185 C133.411,97.908 141.021,93.567 147.026,87.192 C147.748,86.426 149.081,87.403 148.353,88.176 C139.428,97.651 126.378,103.596 113.248,103.502 C107.898,103.464 101.9,102.043 98.825,97.244 C96.321,93.335 96.392,88.594 99.415,85.076 C99.673,85.513 99.931,85.95 100.19,86.387 C89.216,86.445 78.478,79.13 76.356,67.929 C73.766,54.261 90.139,50.666 100.576,51.129 C100.378,51.623 100.179,52.118 99.981,52.612 C97.101,50.686 96.472,47.075 98.403,44.116 C100.705,40.59 105.391,40.341 109.155,40.687 C121.096,41.784 133.132,48.791 136.67,60.712 C136.143,60.786 135.617,60.86 135.091,60.933 C135.392,55.966 136.214,51.18 137.548,46.39 C137.718,45.779 138.611,45.728 138.96,46.183 C148.151,58.128 151.595,73.025 148.509,87.787 C148.293,88.82 146.652,88.625 146.87,87.581" id="Fill-230" fill="#39A935"></path>
                <path d="M83.185,72.443 C82.321,71.032 81.657,69.511 81.241,67.914 C82.288,68.003 83.33,68.102 84.366,68.211 L83.185,72.443" id="Fill-231" fill="#238C20"></path>
                <path d="M84.066,63.331 C107.545,65.848 130.025,73.26 149.357,87.017 C150.225,87.636 149.238,88.961 148.373,88.345 C129.245,74.732 107.086,67.461 83.86,64.97 C82.803,64.857 83.007,63.217 84.066,63.331" id="Fill-232" fill="#006633"></path>
                <path d="M94.408,65.596 C93.371,63.094 91.394,61.318 88.812,60.51 C87.796,60.193 88.418,58.661 89.428,58.977 C92.401,59.907 94.736,62.073 95.927,64.947 C96.334,65.929 94.816,66.58 94.408,65.596" id="Fill-233" fill="#006633"></path>
                <path d="M104.089,68.314 C101.834,73.597 93.951,76.195 88.831,77.385 C87.797,77.625 87.579,75.986 88.609,75.747 C93.031,74.72 100.587,72.312 102.556,67.699 C102.973,66.721 104.507,67.334 104.089,68.314" id="Fill-234" fill="#006633"></path>
                <path d="M112.871,50.76 C121.52,55.399 126.544,64.084 126.231,73.898 C126.197,74.959 124.558,74.748 124.592,73.692 C124.879,64.699 120.186,56.546 112.256,52.293 C111.328,51.796 111.934,50.258 112.871,50.76" id="Fill-235" fill="#006633"></path>
                <path d="M136.23,79.372 C133.713,89.254 119.761,91.402 111.358,93.037 C110.315,93.24 110.093,91.602 111.136,91.399 C118.457,89.975 132.34,88.004 134.59,79.166 C134.849,78.15 136.492,78.342 136.23,79.372" id="Fill-236" fill="#006633"></path>
                <path d="M126.757,88.303 C124.07,86.912 121.151,86.563 118.212,87.276 C117.181,87.526 116.964,85.887 117.99,85.639 C121.173,84.866 124.464,85.264 127.373,86.77 C128.31,87.256 127.702,88.793 126.757,88.303" id="Fill-237" fill="#006633"></path>
                <path d="M115.492,72.109 C112.684,74.63 109.504,76.481 105.924,77.672 C104.922,78.006 104.265,76.49 105.275,76.153 C108.717,75.007 111.763,73.24 114.462,70.817 C115.255,70.105 116.28,71.402 115.492,72.109" id="Fill-238" fill="#006633"></path>
                <path d="M121.255,60.593 C117.043,62.343 112.136,59.547 108.509,57.534 C107.591,57.024 108.196,55.485 109.125,56.001 C112.282,57.754 116.936,60.599 120.606,59.074 C121.587,58.666 122.239,60.184 121.255,60.593" id="Fill-239" fill="#006633"></path>
                <path d="M141.562,65.106 C142.9,70.366 145.114,77.889 142.421,83.054 C141.933,83.989 140.396,83.382 140.888,82.439 C143.379,77.661 141.173,70.236 139.925,65.328 C139.664,64.301 141.302,64.084 141.562,65.106" id="Fill-240" fill="#006633"></path>
                <path d="M85.36,57.65 C85.439,57.359 85.514,57.066 85.584,56.771 C85.649,56.502 85.709,56.233 85.765,55.963 C86.407,55.476 87.23,55.003 88.154,54.636 L87.996,55.202 C88.187,55.186 88.38,55.178 88.574,55.178 C89.027,55.178 89.486,55.223 89.944,55.319 L89.494,56.933 C88.299,57.235 87.085,57.496 86.068,57.588 C85.816,57.619 85.578,57.638 85.36,57.65" id="Fill-241" fill="#65E25F"></path>
                <path d="M132.451,44.377 C132.564,44.377 132.675,44.384 132.788,44.385 C132.901,44.384 133.013,44.377 133.126,44.377 C133.239,44.377 133.351,44.384 133.463,44.385 C133.576,44.384 133.688,44.377 133.801,44.377 C133.914,44.377 134.026,44.384 134.139,44.385 C134.252,44.384 134.363,44.377 134.476,44.377 C134.59,44.377 134.701,44.384 134.814,44.385 C134.927,44.384 135.038,44.377 135.152,44.377 C135.265,44.377 135.376,44.384 135.489,44.385 C135.602,44.384 135.714,44.377 135.827,44.377 C135.94,44.377 136.051,44.384 136.164,44.385 C136.277,44.384 136.389,44.377 136.502,44.377 C136.615,44.377 136.727,44.384 136.84,44.385 C136.953,44.384 137.064,44.377 137.177,44.377 C137.291,44.377 137.402,44.384 137.515,44.385 C137.628,44.384 137.739,44.377 137.853,44.377 C153.576,44.377 166.323,57.123 166.323,72.847 C166.323,88.571 153.576,101.317 137.853,101.317 C137.739,101.317 137.628,101.31 137.515,101.308 C137.402,101.31 137.291,101.317 137.177,101.317 C137.064,101.317 136.953,101.31 136.84,101.308 C136.727,101.31 136.615,101.317 136.502,101.317 C136.389,101.317 136.277,101.31 136.164,101.308 C136.051,101.31 135.94,101.317 135.827,101.317 C135.714,101.317 135.602,101.31 135.489,101.308 C135.376,101.31 135.265,101.317 135.152,101.317 C135.038,101.317 134.927,101.31 134.814,101.308 C134.701,101.31 134.59,101.317 134.476,101.317 C134.363,101.317 134.252,101.31 134.139,101.308 C134.026,101.31 133.914,101.317 133.801,101.317 C133.688,101.317 133.576,101.31 133.463,101.308 C133.351,101.31 133.239,101.317 133.126,101.317 C133.013,101.317 132.901,101.31 132.788,101.308 C132.675,101.31 132.564,101.317 132.451,101.317 C116.727,101.317 103.98,88.571 103.98,72.847 C103.98,57.123 116.727,44.377 132.451,44.377" id="Fill-242" fill="#722421"></path>
                <path d="M103.25,72.847 C103.25,88.571 115.997,101.317 131.721,101.317 C147.444,101.317 160.191,88.571 160.191,72.847 C160.191,57.123 147.444,44.377 131.721,44.377 C115.997,44.377 103.25,57.123 103.25,72.847" id="Fill-243" fill="#B45B4C"></path>
                <path d="M123.301,57.286 C125.949,58.025 127.487,60.804 126.737,63.493 C125.987,66.183 123.232,67.764 120.584,67.025 C117.935,66.286 116.397,63.507 117.148,60.817 C117.898,58.128 120.653,56.547 123.301,57.286 M107.502,53.728 C109.234,54.211 110.24,56.029 109.75,57.789 C109.259,59.548 107.456,60.583 105.724,60.099 C103.992,59.616 102.985,57.798 103.476,56.038 C103.967,54.279 105.769,53.244 107.502,53.728 M122.073,85.46 C125.686,86.468 127.786,90.26 126.761,93.93 C125.738,97.6 121.978,99.757 118.365,98.749 C114.752,97.741 112.653,93.949 113.677,90.279 C114.701,86.61 118.46,84.452 122.073,85.46 M96.382,78.292 C98.114,78.775 99.12,80.593 98.63,82.353 C98.139,84.112 96.336,85.147 94.604,84.663 C92.871,84.18 91.865,82.362 92.356,80.602 C92.847,78.843 94.649,77.808 96.382,78.292 M126.145,54.645 L92.733,45.323 L89.224,57.898 C89.996,57.834 90.79,57.895 91.579,58.115 C95.192,59.123 97.291,62.915 96.267,66.585 C95.243,70.255 91.484,72.412 87.871,71.404 C87.082,71.184 86.372,70.825 85.744,70.371 L79.527,92.655 L97.38,97.636 L97.397,97.559 C98.148,94.87 100.903,93.288 103.551,94.027 C106.199,94.766 107.737,97.545 106.987,100.235 L106.962,100.309 L126.13,105.658 L135.254,72.957 C133.539,71.925 132.651,69.822 133.223,67.772 C133.795,65.722 135.643,64.383 137.645,64.387 L139.336,58.326 L131.824,56.23 C131.022,57.181 129.73,57.64 128.468,57.288 C127.207,56.937 126.339,55.875 126.145,54.645" id="Fill-244" fill="#D85A1E"></path>
                <path d="M122.072,54.589 C124.721,55.328 126.259,58.108 125.509,60.797 C124.758,63.486 122.003,65.068 119.355,64.329 C116.707,63.59 115.169,60.811 115.919,58.121 C116.669,55.432 119.424,53.851 122.072,54.589 M106.273,51.032 C108.006,51.515 109.012,53.333 108.521,55.093 C108.03,56.852 106.228,57.886 104.495,57.403 C102.763,56.92 101.757,55.102 102.247,53.342 C102.738,51.583 104.541,50.548 106.273,51.032 M120.844,82.764 C124.458,83.772 126.557,87.564 125.533,91.234 C124.509,94.904 120.75,97.061 117.137,96.053 C113.523,95.045 111.424,91.253 112.448,87.583 C113.472,83.913 117.231,81.756 120.844,82.764 M95.153,75.595 C96.885,76.079 97.892,77.897 97.401,79.656 C96.91,81.416 95.108,82.45 93.375,81.967 C91.643,81.484 90.637,79.666 91.128,77.906 C91.618,76.147 93.421,75.112 95.153,75.595 M124.916,51.949 L91.504,42.627 L87.996,55.202 C88.768,55.138 89.562,55.199 90.35,55.419 C93.963,56.427 96.062,60.219 95.038,63.889 C94.015,67.558 90.255,69.716 86.642,68.708 C85.854,68.488 85.143,68.129 84.516,67.674 L78.298,89.958 L96.151,94.94 L96.169,94.863 C96.919,92.173 99.674,90.592 102.322,91.331 C104.97,92.07 106.509,94.849 105.758,97.538 L105.733,97.613 L124.901,102.961 L134.025,70.26 C132.31,69.228 131.422,67.126 131.994,65.076 C132.566,63.026 134.415,61.686 136.416,61.691 L138.107,55.63 L130.596,53.534 C129.793,54.485 128.501,54.944 127.24,54.592 C125.978,54.24 125.11,53.178 124.916,51.949" id="Fill-245" fill="#FEBC30"></path>
                <path d="M160.335,91.199 C160.683,93.926 158.719,96.423 155.949,96.776 C153.18,97.13 150.652,95.205 150.305,92.478 C149.957,89.751 151.92,87.254 154.69,86.901 C157.46,86.547 159.987,88.472 160.335,91.199 M157.477,75.258 C157.704,77.042 156.42,78.676 154.608,78.907 C152.796,79.138 151.142,77.879 150.915,76.095 C150.687,74.311 151.972,72.677 153.784,72.446 C155.596,72.215 157.249,73.474 157.477,75.258 M133.896,101.011 C134.37,104.732 131.691,108.139 127.912,108.621 C124.133,109.103 120.684,106.477 120.21,102.756 C119.735,99.035 122.414,95.628 126.194,95.146 C129.973,94.664 133.421,97.29 133.896,101.011 M130.522,74.553 C130.75,76.337 129.465,77.97 127.653,78.201 C125.841,78.432 124.188,77.173 123.96,75.389 C123.733,73.605 125.017,71.972 126.829,71.74 C128.641,71.509 130.295,72.768 130.522,74.553 M163.873,92.794 L159.485,58.384 L146.535,60.036 C146.894,60.722 147.146,61.478 147.249,62.29 C147.724,66.011 145.045,69.418 141.265,69.9 C137.486,70.382 134.038,67.756 133.563,64.035 C133.46,63.223 133.514,62.428 133.69,61.673 L110.74,64.6 L113.085,82.986 L113.162,82.972 C115.932,82.619 118.459,84.544 118.807,87.271 C119.155,89.998 117.191,92.495 114.421,92.848 L114.343,92.854 L116.86,112.594 L150.537,108.3 C150.822,106.319 152.415,104.684 154.526,104.415 C156.637,104.146 158.589,105.329 159.362,107.175 L165.605,106.379 L164.618,98.643 C163.43,98.273 162.505,97.261 162.339,95.962 C162.174,94.663 162.815,93.45 163.873,92.794" id="Fill-246" fill="#D85A1E"></path>
                <path d="M162.342,89.02 C162.69,91.747 160.727,94.244 157.957,94.597 C155.187,94.95 152.66,93.026 152.312,90.299 C151.964,87.571 153.928,85.074 156.697,84.721 C159.467,84.368 161.994,86.293 162.342,89.02 M159.484,73.079 C159.711,74.863 158.427,76.497 156.615,76.728 C154.803,76.959 153.15,75.7 152.922,73.916 C152.695,72.132 153.979,70.498 155.791,70.267 C157.603,70.036 159.256,71.295 159.484,73.079 M135.903,98.832 C136.378,102.553 133.698,105.96 129.919,106.442 C126.14,106.924 122.691,104.298 122.217,100.577 C121.743,96.856 124.422,93.448 128.201,92.967 C131.98,92.485 135.429,95.11 135.903,98.832 M132.529,72.373 C132.757,74.157 131.472,75.791 129.661,76.022 C127.848,76.253 126.195,74.994 125.968,73.21 C125.74,71.426 127.025,69.792 128.837,69.561 C130.649,69.33 132.302,70.589 132.529,72.373 M165.88,90.615 L161.492,56.205 L148.542,57.856 C148.901,58.543 149.153,59.298 149.256,60.11 C149.731,63.831 147.052,67.239 143.273,67.72 C139.493,68.202 136.045,65.576 135.571,61.855 C135.467,61.043 135.521,60.249 135.697,59.494 L112.747,62.42 L115.092,80.807 L115.17,80.793 C117.939,80.44 120.466,82.364 120.814,85.091 C121.162,87.819 119.198,90.316 116.429,90.669 L116.35,90.675 L118.867,110.415 L152.544,106.121 C152.829,104.14 154.422,102.505 156.533,102.235 C158.644,101.966 160.596,103.149 161.369,104.996 L167.612,104.2 L166.626,96.464 C165.437,96.094 164.512,95.081 164.347,93.782 C164.181,92.483 164.822,91.271 165.88,90.615" id="Fill-247" fill="#FEBC30"></path>
                <path d="M124.316,30.552 L124.501,30.558 L124.685,30.552 L124.87,30.558 L125.054,30.552 L125.239,30.558 L125.423,30.552 L125.608,30.558 L125.792,30.552 L125.977,30.558 L126.161,30.552 L126.346,30.558 L126.53,30.552 L126.715,30.558 L126.9,30.552 L127.084,30.558 L127.269,30.552 C135.862,30.552 142.828,37.727 142.828,46.577 C142.828,55.427 135.862,62.602 127.269,62.602 L127.084,62.597 L126.9,62.602 L126.715,62.597 L126.53,62.602 L126.346,62.597 L126.161,62.602 L125.977,62.597 L125.792,62.602 L125.608,62.597 L125.423,62.602 L125.239,62.597 L125.054,62.602 L124.87,62.597 L124.685,62.602 L124.501,62.597 L124.316,62.602 C115.723,62.602 108.757,55.427 108.757,46.577 C108.757,37.727 115.723,30.552 124.316,30.552" id="Fill-248" fill="#B4242C"></path>
                <path d="M109.084,46.577 C109.084,55.427 116.259,62.602 125.109,62.602 C133.959,62.602 141.133,55.427 141.133,46.577 C141.133,37.727 133.959,30.552 125.109,30.552 C116.259,30.552 109.084,37.727 109.084,46.577" id="Fill-249" fill="#B4242C"></path>
                <path d="M112.332,50.001 C112.038,48.908 111.88,47.761 111.88,46.577 C111.88,40.467 116.045,35.313 121.685,33.8 L123.916,42.126 C123.522,42.231 123.149,42.386 122.804,42.586 C122.029,41.244 121.136,39.696 120.247,38.156 C117.339,39.842 115.374,42.981 115.374,46.577 L120.496,46.577 C120.496,46.99 120.556,47.389 120.658,47.77 L112.332,50.001 M115.759,55.927 L121.847,49.839 C122.131,50.123 122.455,50.366 122.804,50.569 L120.247,54.998 C121.679,55.829 123.337,56.312 125.109,56.312 C126.881,56.312 128.538,55.829 129.971,54.998 L127.413,50.569 C127.763,50.366 128.087,50.123 128.37,49.839 L134.459,55.927 C132.064,58.323 128.756,59.806 125.109,59.806 C121.462,59.806 118.154,58.323 115.759,55.927 M129.56,47.77 C129.662,47.389 129.721,46.99 129.721,46.577 C131.273,46.577 133.063,46.577 134.844,46.577 C134.844,42.981 132.879,39.842 129.971,38.156 L127.413,42.586 C127.068,42.386 126.696,42.231 126.301,42.126 L128.533,33.8 C134.173,35.313 138.338,40.466 138.338,46.577 C138.338,47.761 138.179,48.908 137.886,50.001 L129.56,47.77 M109.084,46.577 C109.084,55.427 116.259,62.602 125.109,62.602 C133.959,62.602 141.133,55.427 141.133,46.577 C141.133,37.727 133.959,30.552 125.109,30.552 C116.259,30.552 109.084,37.727 109.084,46.577" id="Fill-250" fill="#E12C35"></path>
                <path d="M136.642,47.296 L136.909,47.296 C137.181,47.296 137.402,47.076 137.402,46.803 C137.402,46.531 137.181,46.31 136.909,46.31 L136.642,46.31 C136.37,46.31 136.149,46.531 136.149,46.803 C136.149,47.076 136.37,47.296 136.642,47.296" id="Fill-251" fill="#FEBC30"></path>
                <path d="M130.814,57.403 L131.06,57.337 C131.296,57.2 131.376,56.899 131.24,56.663 L131.107,56.431 C130.971,56.196 130.669,56.114 130.433,56.251 C130.198,56.387 130.117,56.689 130.253,56.925 L130.386,57.156 C130.478,57.314 130.643,57.403 130.814,57.403" id="Fill-252" fill="#FEBC30"></path>
                <path d="M126.935,58.73 L127.021,58.722 C127.289,58.675 127.469,58.42 127.421,58.152 L127.375,57.889 C127.327,57.62 127.07,57.44 126.803,57.489 C126.535,57.536 126.356,57.792 126.403,58.06 L126.45,58.323 C126.492,58.562 126.7,58.73 126.935,58.73" id="Fill-253" fill="#FEBC30"></path>
                <path d="M122.838,58.652 C123.072,58.652 123.28,58.484 123.323,58.244 L123.369,57.981 C123.417,57.713 123.237,57.458 122.969,57.41 C122.702,57.361 122.446,57.542 122.398,57.81 L122.352,58.073 C122.304,58.341 122.483,58.597 122.752,58.644 L122.838,58.652" id="Fill-254" fill="#FEBC30"></path>
                <path d="M119.013,57.176 C119.183,57.176 119.348,57.088 119.44,56.93 L119.573,56.699 C119.71,56.463 119.629,56.162 119.393,56.025 C119.158,55.889 118.857,55.969 118.72,56.205 L118.586,56.436 C118.45,56.672 118.531,56.974 118.766,57.11 L119.013,57.176" id="Fill-255" fill="#FEBC30"></path>
                <path d="M113.309,46.844 L113.576,46.844 C113.848,46.844 114.069,46.624 114.069,46.351 C114.069,46.079 113.848,45.858 113.576,45.858 L113.309,45.858 C113.036,45.858 112.816,46.079 112.816,46.351 C112.816,46.624 113.036,46.844 113.309,46.844" id="Fill-256" fill="#FEBC30"></path>
                <path d="M114.348,42.913 C114.55,42.913 114.739,42.789 114.812,42.589 C114.905,42.333 114.773,42.05 114.517,41.957 L114.266,41.866 C114.011,41.773 113.727,41.904 113.634,42.16 C113.541,42.416 113.673,42.699 113.929,42.792 L114.18,42.883 L114.348,42.913" id="Fill-257" fill="#FEBC30"></path>
                <path d="M116.419,39.483 C116.56,39.483 116.7,39.423 116.797,39.307 C116.972,39.098 116.944,38.787 116.736,38.612 L116.531,38.441 C116.323,38.266 116.011,38.294 115.837,38.502 C115.662,38.711 115.689,39.022 115.898,39.197 L116.103,39.368 C116.195,39.446 116.307,39.483 116.419,39.483" id="Fill-258" fill="#FEBC30"></path>
                <path d="M119.538,36.969 L119.785,36.903 C120.02,36.766 120.101,36.465 119.965,36.229 L119.831,35.998 C119.695,35.762 119.393,35.682 119.158,35.818 C118.922,35.954 118.841,36.256 118.977,36.492 L119.111,36.723 C119.202,36.881 119.368,36.969 119.538,36.969" id="Fill-259" fill="#FEBC30"></path>
                <path d="M131.071,37.195 C131.241,37.195 131.407,37.107 131.499,36.948 L131.632,36.717 C131.768,36.481 131.687,36.179 131.451,36.044 C131.215,35.907 130.913,35.989 130.777,36.225 L130.644,36.456 C130.508,36.692 130.589,36.994 130.825,37.129 L131.071,37.195" id="Fill-260" fill="#FEBC30"></path>
                <path d="M134.089,39.83 C134.201,39.83 134.313,39.792 134.406,39.715 L134.61,39.543 C134.819,39.368 134.846,39.057 134.672,38.848 C134.497,38.64 134.186,38.611 133.977,38.787 L133.772,38.959 C133.564,39.133 133.536,39.444 133.711,39.653 C133.809,39.77 133.948,39.83 134.089,39.83" id="Fill-261" fill="#FEBC30"></path>
                <path d="M136.024,43.338 L136.193,43.308 L136.444,43.217 C136.7,43.124 136.831,42.84 136.738,42.584 C136.645,42.329 136.361,42.197 136.106,42.29 L135.855,42.382 C135.599,42.475 135.467,42.758 135.56,43.014 C135.633,43.214 135.822,43.338 136.024,43.338" id="Fill-262" fill="#FEBC30"></path>
                <path d="M110.239,85.187 L110.423,85.192 L110.608,85.187 L110.792,85.192 L110.977,85.187 L111.161,85.192 L111.346,85.187 L111.53,85.192 L111.715,85.187 L111.899,85.192 L112.084,85.187 L112.268,85.192 L112.453,85.187 L112.638,85.192 L112.822,85.187 L113.007,85.192 L113.191,85.187 C121.784,85.187 128.751,92.361 128.751,101.212 C128.751,110.062 121.784,117.236 113.191,117.236 L113.007,117.231 L112.822,117.236 L112.638,117.231 L112.453,117.236 L112.268,117.231 L112.084,117.236 L111.899,117.231 L111.715,117.236 L111.53,117.231 L111.346,117.236 L111.161,117.231 L110.977,117.236 L110.792,117.231 L110.608,117.236 L110.423,117.231 L110.239,117.236 C101.646,117.236 94.679,110.062 94.679,101.212 C94.679,92.361 101.646,85.187 110.239,85.187" id="Fill-263" fill="#B4242C"></path>
                <path d="M95.007,101.212 C95.007,110.062 102.181,117.236 111.032,117.236 C119.882,117.236 127.056,110.062 127.056,101.212 C127.056,92.361 119.882,85.187 111.032,85.187 C102.181,85.187 95.007,92.361 95.007,101.212" id="Fill-264" fill="#B4242C"></path>
                <path d="M98.254,104.635 C97.961,103.543 97.802,102.396 97.802,101.212 C97.802,95.101 101.968,89.947 107.608,88.434 L109.839,96.761 C109.445,96.866 109.072,97.021 108.727,97.22 C107.952,95.878 107.059,94.33 106.17,92.791 C103.262,94.476 101.296,97.615 101.296,101.212 L106.419,101.212 C106.419,101.625 106.478,102.023 106.58,102.404 L98.254,104.635 M101.681,110.562 L107.77,104.473 C108.054,104.757 108.377,105.001 108.727,105.203 L106.169,109.633 C107.602,110.463 109.26,110.947 111.032,110.947 C112.803,110.947 114.461,110.463 115.893,109.633 L113.336,105.203 C113.686,105.001 114.009,104.757 114.293,104.473 L120.382,110.562 C117.986,112.957 114.679,114.441 111.032,114.441 C107.384,114.441 104.077,112.957 101.681,110.562 M115.483,102.404 C115.585,102.023 115.644,101.625 115.644,101.212 C117.196,101.212 118.986,101.212 120.767,101.212 C120.766,97.615 118.801,94.476 115.893,92.79 L113.336,97.22 C112.991,97.02 112.618,96.866 112.224,96.761 L114.455,88.434 C120.095,89.947 124.261,95.101 124.261,101.212 C124.261,102.396 124.102,103.543 123.809,104.635 L115.483,102.404 M95.007,101.212 C95.007,110.062 102.181,117.236 111.032,117.236 C119.882,117.236 127.056,110.062 127.056,101.212 C127.056,92.361 119.882,85.187 111.032,85.187 C102.181,85.187 95.007,92.361 95.007,101.212" id="Fill-265" fill="#E12C35"></path>
                <path d="M122.565,101.931 L122.832,101.931 C123.104,101.931 123.325,101.71 123.325,101.438 C123.325,101.165 123.104,100.945 122.832,100.945 L122.565,100.945 C122.292,100.945 122.071,101.165 122.071,101.438 C122.071,101.71 122.292,101.931 122.565,101.931" id="Fill-266" fill="#FEBC30"></path>
                <path d="M116.736,112.037 L116.982,111.971 C117.218,111.835 117.299,111.533 117.163,111.298 L117.029,111.066 C116.894,110.83 116.592,110.749 116.356,110.885 C116.12,111.022 116.039,111.323 116.175,111.559 L116.309,111.791 C116.4,111.949 116.566,112.037 116.736,112.037" id="Fill-267" fill="#FEBC30"></path>
                <path d="M112.858,113.365 L112.944,113.357 C113.212,113.31 113.391,113.054 113.344,112.786 L113.297,112.523 C113.25,112.255 112.993,112.074 112.726,112.123 C112.458,112.171 112.279,112.426 112.326,112.694 L112.373,112.957 C112.415,113.197 112.623,113.365 112.858,113.365" id="Fill-268" fill="#FEBC30"></path>
                <path d="M108.76,113.286 C108.995,113.286 109.203,113.118 109.245,112.879 L109.292,112.616 C109.339,112.348 109.16,112.092 108.892,112.045 C108.625,111.995 108.368,112.176 108.321,112.444 L108.274,112.707 C108.227,112.976 108.406,113.231 108.674,113.278 L108.76,113.286" id="Fill-269" fill="#FEBC30"></path>
                <path d="M104.935,111.811 C105.106,111.811 105.271,111.723 105.363,111.565 L105.496,111.334 C105.632,111.098 105.552,110.796 105.316,110.66 C105.081,110.523 104.779,110.604 104.642,110.84 L104.509,111.071 C104.373,111.307 104.453,111.608 104.689,111.745 L104.935,111.811" id="Fill-270" fill="#FEBC30"></path>
                <path d="M99.231,101.479 L99.498,101.479 C99.771,101.479 99.991,101.258 99.991,100.986 C99.991,100.713 99.771,100.493 99.498,100.493 L99.231,100.493 C98.959,100.493 98.738,100.713 98.738,100.986 C98.738,101.258 98.959,101.479 99.231,101.479" id="Fill-271" fill="#FEBC30"></path>
                <path d="M100.271,97.548 C100.472,97.548 100.661,97.423 100.734,97.224 C100.827,96.968 100.696,96.684 100.44,96.591 L100.189,96.5 C99.934,96.408 99.65,96.538 99.557,96.794 C99.464,97.05 99.595,97.333 99.851,97.426 L100.102,97.518 L100.271,97.548" id="Fill-272" fill="#FEBC30"></path>
                <path d="M102.342,94.118 C102.482,94.118 102.622,94.058 102.72,93.942 C102.895,93.733 102.867,93.422 102.658,93.247 L102.454,93.075 C102.245,92.9 101.934,92.928 101.759,93.137 C101.584,93.346 101.612,93.657 101.821,93.831 L102.025,94.003 C102.118,94.08 102.23,94.118 102.342,94.118" id="Fill-273" fill="#FEBC30"></path>
                <path d="M105.461,91.603 L105.707,91.538 C105.943,91.401 106.024,91.099 105.887,90.863 L105.754,90.632 C105.618,90.396 105.316,90.316 105.08,90.452 C104.844,90.589 104.764,90.89 104.9,91.126 L105.034,91.357 C105.125,91.515 105.291,91.603 105.461,91.603" id="Fill-274" fill="#FEBC30"></path>
                <path d="M116.993,91.83 C117.164,91.83 117.33,91.741 117.421,91.583 L117.554,91.351 C117.69,91.115 117.609,90.814 117.373,90.678 C117.137,90.541 116.836,90.623 116.7,90.859 L116.567,91.091 C116.431,91.327 116.512,91.628 116.748,91.764 L116.993,91.83" id="Fill-275" fill="#FEBC30"></path>
                <path d="M120.012,94.464 C120.124,94.464 120.236,94.427 120.328,94.349 L120.533,94.178 C120.742,94.003 120.769,93.692 120.594,93.483 C120.42,93.274 120.109,93.246 119.9,93.422 L119.695,93.593 C119.486,93.768 119.459,94.079 119.634,94.288 C119.731,94.404 119.871,94.464 120.012,94.464" id="Fill-276" fill="#FEBC30"></path>
                <path d="M121.946,97.972 L122.115,97.942 L122.366,97.851 C122.622,97.758 122.754,97.475 122.661,97.219 C122.568,96.964 122.284,96.832 122.029,96.925 L121.778,97.016 C121.522,97.109 121.39,97.392 121.483,97.648 C121.556,97.848 121.745,97.972 121.946,97.972" id="Fill-277" fill="#FEBC30"></path>
                <path d="M142.949,78.259 L143.14,78.264 L143.33,78.259 L143.521,78.264 L143.711,78.259 L143.902,78.264 L144.092,78.259 L144.283,78.264 L144.473,78.259 L144.664,78.264 L144.854,78.259 L145.045,78.264 L145.235,78.259 L145.426,78.264 L145.616,78.259 L145.806,78.264 L145.997,78.259 C154.867,78.259 162.058,85.794 162.058,95.089 C162.058,104.384 154.867,111.919 145.997,111.919 L145.806,111.914 L145.616,111.919 L145.426,111.914 L145.235,111.919 L145.045,111.914 L144.854,111.919 L144.664,111.914 L144.473,111.919 L144.283,111.914 L144.092,111.919 L143.902,111.914 L143.711,111.919 L143.521,111.914 L143.33,111.919 L143.14,111.914 L142.949,111.919 C134.079,111.919 126.888,104.384 126.888,95.089 C126.888,85.794 134.079,78.259 142.949,78.259" id="Fill-278" fill="#941B80"></path>
                <path d="M126.457,95.089 C126.457,104.384 133.992,111.919 143.287,111.919 C152.582,111.919 160.117,104.384 160.117,95.089 C160.117,85.794 152.582,78.259 143.287,78.259 C133.992,78.259 126.457,85.794 126.457,95.089" id="Fill-279" fill="#CBC6E3"></path>
                <path d="M143.287,79.641 C134.769,79.641 127.839,86.571 127.839,95.089 C127.839,103.607 134.769,110.537 143.287,110.537 C151.805,110.537 158.735,103.607 158.735,95.089 C158.735,86.571 151.805,79.641 143.287,79.641 M143.287,81.195 C150.948,81.195 157.181,87.428 157.181,95.089 C157.181,102.75 150.948,108.983 143.287,108.983 C135.625,108.983 129.393,102.75 129.393,95.089 C129.393,87.428 135.625,81.195 143.287,81.195" id="Fill-280" fill="#941B80"></path>
                <path d="M143.287,82.577 C136.388,82.577 130.775,88.19 130.775,95.089 C130.775,101.988 136.388,107.601 143.287,107.601 C150.186,107.601 155.798,101.988 155.798,95.089 C155.798,88.19 150.186,82.577 143.287,82.577 M143.287,84.131 C149.329,84.131 154.245,89.046 154.245,95.089 C154.245,101.131 149.329,106.047 143.287,106.047 C137.244,106.047 132.328,101.131 132.328,95.089 C132.328,89.046 137.244,84.131 143.287,84.131" id="Fill-281" fill="#941B80"></path>
                <path d="M143.287,85.513 C138.006,85.513 133.711,89.809 133.711,95.089 C133.711,100.369 138.006,104.665 143.287,104.665 C148.567,104.665 152.863,100.369 152.863,95.089 C152.863,89.809 148.567,85.513 143.287,85.513 M143.287,87.067 C147.71,87.067 151.309,90.666 151.309,95.089 C151.309,99.512 147.71,103.111 143.287,103.111 C138.863,103.111 135.264,99.512 135.264,95.089 C135.264,90.666 138.863,87.067 143.287,87.067" id="Fill-282" fill="#941B80"></path>
                <path d="M143.287,88.449 C139.625,88.449 136.647,91.428 136.647,95.089 C136.647,98.75 139.625,101.729 143.287,101.729 C146.948,101.729 149.927,98.75 149.927,95.089 C149.927,91.428 146.948,88.449 143.287,88.449 M143.287,90.003 C146.091,90.003 148.373,92.284 148.373,95.089 C148.373,97.894 146.091,100.175 143.287,100.175 C140.482,100.175 138.2,97.894 138.2,95.089 C138.2,92.284 140.482,90.003 143.287,90.003" id="Fill-283" fill="#941B80"></path>
                <path d="M143.287,91.385 C141.244,91.385 139.583,93.047 139.583,95.089 C139.583,97.131 141.244,98.793 143.287,98.793 C145.329,98.793 146.991,97.131 146.991,95.089 C146.991,93.047 145.329,91.385 143.287,91.385 M143.287,92.938 C144.473,92.938 145.437,93.903 145.437,95.089 C145.437,96.275 144.473,97.239 143.287,97.239 C142.101,97.239 141.136,96.275 141.136,95.089 C141.136,93.903 142.101,92.938 143.287,92.938" id="Fill-284" fill="#941B80"></path>
                <path d="M100.373,57.465 L100.564,57.47 L100.754,57.465 L100.945,57.47 L101.135,57.465 L101.326,57.47 L101.516,57.465 L101.707,57.47 L101.897,57.465 L102.088,57.47 L102.278,57.465 L102.469,57.47 L102.659,57.465 L102.85,57.47 L103.04,57.465 L103.23,57.47 L103.421,57.465 C112.291,57.465 119.482,65 119.482,74.295 C119.482,83.59 112.291,91.125 103.421,91.125 L103.23,91.12 L103.04,91.125 L102.85,91.12 L102.659,91.125 L102.469,91.12 L102.278,91.125 L102.088,91.12 L101.897,91.125 L101.707,91.12 L101.516,91.125 L101.326,91.12 L101.135,91.125 L100.945,91.12 L100.754,91.125 L100.564,91.12 L100.373,91.125 C91.503,91.125 84.312,83.59 84.312,74.295 C84.312,65 91.503,57.465 100.373,57.465" id="Fill-285" fill="#941B80"></path>
                <path d="M83.881,74.295 C83.881,83.59 91.416,91.125 100.711,91.125 C110.006,91.125 117.541,83.59 117.541,74.295 C117.541,65 110.006,57.465 100.711,57.465 C91.416,57.465 83.881,65 83.881,74.295" id="Fill-286" fill="#CBC6E3"></path>
                <path d="M100.711,58.847 C92.193,58.847 85.263,65.777 85.263,74.295 C85.263,82.813 92.193,89.743 100.711,89.743 C109.229,89.743 116.158,82.813 116.158,74.295 C116.158,65.777 109.229,58.847 100.711,58.847 M100.711,60.401 C108.372,60.401 114.605,66.633 114.605,74.295 C114.605,81.956 108.372,88.189 100.711,88.189 C93.049,88.189 86.816,81.956 86.816,74.295 C86.816,66.633 93.049,60.401 100.711,60.401" id="Fill-287" fill="#941B80"></path>
                <path d="M100.711,61.783 C93.812,61.783 88.199,67.396 88.199,74.295 C88.199,81.194 93.812,86.807 100.711,86.807 C107.61,86.807 113.223,81.194 113.223,74.295 C113.223,67.396 107.61,61.783 100.711,61.783 M100.711,63.336 C106.753,63.336 111.669,68.252 111.669,74.295 C111.669,80.337 106.753,85.253 100.711,85.253 C94.668,85.253 89.752,80.337 89.752,74.295 C89.752,68.252 94.668,63.336 100.711,63.336" id="Fill-288" fill="#941B80"></path>
                <path d="M100.711,64.719 C95.43,64.719 91.135,69.015 91.135,74.295 C91.135,79.575 95.43,83.871 100.711,83.871 C105.991,83.871 110.287,79.575 110.287,74.295 C110.287,69.015 105.991,64.719 100.711,64.719 M100.711,66.272 C105.134,66.272 108.733,69.871 108.733,74.295 C108.733,78.718 105.134,82.317 100.711,82.317 C96.287,82.317 92.688,78.718 92.688,74.295 C92.688,69.871 96.287,66.272 100.711,66.272" id="Fill-289" fill="#941B80"></path>
                <path d="M100.711,67.655 C97.049,67.655 94.071,70.633 94.071,74.295 C94.071,77.956 97.049,80.935 100.711,80.935 C104.372,80.935 107.351,77.956 107.351,74.295 C107.351,70.633 104.372,67.655 100.711,67.655 M100.711,69.208 C103.515,69.208 105.797,71.49 105.797,74.295 C105.797,77.1 103.515,79.381 100.711,79.381 C97.906,79.381 95.624,77.1 95.624,74.295 C95.624,71.49 97.906,69.208 100.711,69.208" id="Fill-290" fill="#941B80"></path>
                <path d="M100.711,70.591 C98.668,70.591 97.007,72.252 97.007,74.295 C97.007,76.337 98.668,77.999 100.711,77.999 C102.753,77.999 104.415,76.337 104.415,74.295 C104.415,72.252 102.753,70.591 100.711,70.591 M100.711,72.144 C101.896,72.144 102.861,73.109 102.861,74.295 C102.861,75.481 101.896,76.445 100.711,76.445 C99.525,76.445 98.56,75.481 98.56,74.295 C98.56,73.109 99.525,72.144 100.711,72.144" id="Fill-291" fill="#941B80"></path>
                <path d="M106.853,103.327 C122.478,114.204 143.962,110.354 154.839,94.729 C165.715,79.104 161.866,57.62 146.241,46.743 C130.615,35.867 109.131,39.716 98.255,55.341 C87.378,70.967 91.228,92.451 106.853,103.327" id="Fill-292" fill="#E87F31"></path>
                <path d="M107.128,102.932 L106.144,104.346 C112.45,108.738 119.583,110.863 126.612,110.861003 C137.825,110.866 148.786,105.454 155.787,95.389 C160.422,88.729 162.722,80.918 162.722,73.22 C162.722,67.609 161.501,62.051 159.053,57.036 C156.607,52.021 152.927,47.55 148.044,44.153 C142.241,40.111 135.668,38.238 129.134,38.2409964 C117.124,38.248 105.229,44.501 97.865,55.07 C93.349,61.557 91.119,68.864 91.1199882,76.034 C91.111,86.911 96.269,97.482 106.144,104.346 L108.113,101.517 C99.152,95.271 94.576,85.831 94.567,76.034 C94.568,69.577 96.569,62.968 100.694,57.04 C107.416,47.373 118.33,41.681 129.134,41.688 C135.017,41.69 140.863,43.357 146.075,46.982 C150.458,50.035 153.748,54.029 155.955,58.548 C158.161,63.066 159.276,68.109 159.275,73.22 C159.276,80.234 157.175,87.363 152.958,93.42 C146.588,102.565 136.722,107.41 126.612,107.414 C120.275,107.413 113.848,105.508 108.113,101.517 L107.128,102.932" id="Fill-293" fill="#E87F31"></path>
                <path d="M126.524,101.212 C121.364,101.211 116.15,99.689 111.594,96.517 C107.426,93.616 104.362,89.721 102.498,85.375 C101.414,82.32 100.861,79.038 100.861,75.752 C100.86,70.284 102.393,64.823 105.489,60.377 C107.672,57.243 110.368,54.973 113.376,53.471 C114.531,52.896 115.732,52.434 116.969,52.082 C116.212,52.813 115.509,53.638 114.871,54.557 C112.883,57.41 111.959,60.546 111.96,63.642 C111.962,66.517 112.748,69.349 114.178,71.926 C115.407,74.832 117.445,77.437 120.227,79.373 C123.24,81.47 126.687,82.477 130.1,82.477 C130.98,82.477 131.86,82.41 132.728,82.277 C135.627,81.941 138.396,80.767 140.797,78.792 C142.119,77.755 143.311,76.506 144.32,75.056 C145.345,73.584 146.109,72.008 146.623,70.384 C147.2,68.694 147.485,66.985 147.484,65.297 C147.484,65.103 147.481,64.909 147.473,64.715 C147.913,65.355 148.325,66.008 148.709,66.672 C150.949,70.547 152.205,74.784 152.204001,78.96 C152.204001,79.486 152.184,80.01 152.144,80.533 C151.437,83.832 150.077,87.046 148.029,89.989 C142.942,97.297 134.801,101.212 126.524,101.212 M150.637,64.791 C149.429,62.799 147.99,60.913 146.355,59.177 C146.036,58.311 145.648,57.469 145.191,56.658 C147.547,59.043 149.373,61.813 150.637,64.791" id="Fill-294" fill="#F47123"></path>
                <path d="M125.794,104.008 C120.068,104.008 114.377,102.495 109.698,99.24 L110.445,98.166 L111.193,97.092 C115.358,99.993 120.524,101.391 125.794,101.391 C125.796,101.391 125.798,101.391 125.8,101.391 C130.23,101.391 134.722,100.399 138.705,98.524 C142.692,96.648 146.163,93.895 148.603,90.388 C150.764,87.279 151.883,83.938 152.144,80.533 C152.184,80.01 152.204,79.486 152.204,78.96 C152.205,74.784 150.949,70.547 148.709,66.672 C148.325,66.008 147.913,65.355 147.473,64.715 C147.443,63.918 147.348,63.129 147.192,62.352 C147.014,61.271 146.734,60.207 146.355,59.177 C147.99,60.913 149.429,62.799 150.637,64.791 C150.751,64.98 150.864,65.171 150.975,65.362 C153.414,69.582 154.821,74.257 154.822005,78.96 C154.825,83.399 153.555,87.86 150.751,91.883 C148.01,95.819 144.166,98.847 139.819,100.893 C135.471,102.938 130.614,104.007 125.794,104.008 M109.698,99.24 C105.906,96.601 103.039,92.988 101.126,88.915 C99.212,84.839 98.245,80.299 98.244,75.752 C98.245,69.801 99.903,63.824 103.341,58.882 C105.763,55.401 108.811,52.822 112.208,51.129 C115.419,49.528 118.933,48.715 122.524,48.631 C120.499,49.354 118.608,50.499 116.969,52.082 C115.732,52.434 114.531,52.896 113.376,53.471 C110.368,54.973 107.672,57.243 105.489,60.377 C102.393,64.823 100.86,70.284 100.861,75.752 C100.861,79.038 101.414,82.32 102.498,85.375 C102.791,86.202 103.124,87.013 103.495,87.802 C105.236,91.507 107.815,94.741 111.193,97.092 L110.445,98.166 L109.698,99.24" id="Fill-295" fill="#F47123"></path>
                <path d="M130.1,82.477 C126.687,82.477 123.24,81.47 120.227,79.373 C117.445,77.437 115.407,74.832 114.178,71.926 C115.663,74.603 117.843,77.005 120.559,78.896 L121.548,77.475 C116.616,74.043 113.687,68.844 113.690996,63.642 C113.693,60.887 114.501,58.12 116.292,55.546 C117.55,53.742 119.064,52.356 120.746,51.363 C121.539,51.282 122.342,51.242 123.15,51.242 C123.152,51.242 123.155,51.242 123.157,51.242 C128.61,51.242 134.336,53.089 139.379,56.6 C141.593,58.141 143.594,59.946 145.32,61.934 C145.607,63.033 145.753,64.159 145.754,65.297 C145.752,68.176 144.824,71.156 142.832,74.02 C139.725,78.469 135.469,80.64 130.955,80.648 C127.855,80.647 124.615,79.609 121.548,77.475 L120.559,78.896 C123.877,81.207 127.466,82.379 130.955,82.378 C130.962,82.378 130.97,82.378 130.977,82.378 C131.565,82.378 132.149,82.345 132.728,82.277 C131.86,82.41 130.98,82.477 130.1,82.477 M139.53,53.562 C136.669,51.762 133.624,50.432 130.525,49.608 C133.305,50.025 136.104,51.14 138.647,52.911 C138.951,53.123 139.245,53.34 139.53,53.562" id="Fill-296" fill="#F69E54"></path>
                <path d="M145.32,61.934 C143.594,59.946 141.593,58.141 139.379,56.6 C134.336,53.089 128.61,51.242 123.157,51.242 C123.155,51.242 123.152,51.242 123.15,51.242 C122.342,51.242 121.539,51.282 120.746,51.363 C122.961,50.056 125.467,49.428 128.07,49.423 C128.882,49.423 129.703,49.485 130.525,49.608 C133.624,50.432 136.669,51.762 139.53,53.562 C142.552,55.917 144.505,58.818 145.32,61.934" id="Fill-297" fill="#F69E54"></path>
                <path d="M140.797,78.792 C142.062,77.752 143.226,76.489 144.252,75.009 C145.298,73.507 146.087,71.954 146.623,70.384 C146.109,72.008 145.345,73.584 144.32,75.056 C143.311,76.506 142.119,77.755 140.797,78.792" id="Fill-298" fill="#F69E54"></path>
                <path d="M145.191,56.658 C144.78,56.241 144.352,55.837 143.908,55.445 C142.746,53.99 141.315,52.657 139.635,51.49 C136.813,49.526 133.683,48.292 130.544,47.863 C133.82,47.942 137.112,48.95 140.003,50.962 C142.212,52.5 143.953,54.46 145.191,56.658" id="Fill-299" fill="#EFA65C"></path>
                <path d="M146.355,59.177 C146.247,59.062 146.138,58.948 146.028,58.835 C145.473,57.651 144.763,56.515 143.908,55.445 C144.352,55.837 144.78,56.241 145.191,56.658 C145.648,57.469 146.036,58.311 146.355,59.177" id="Fill-300" fill="#F69E54"></path>
                <path d="M147.192,62.352 C146.95,61.146 146.56,59.969 146.028,58.835 C146.138,58.948 146.247,59.062 146.355,59.177 C146.734,60.207 147.014,61.271 147.192,62.352" id="Fill-301" fill="#F69E54"></path>
                <path d="M143.908,55.445 C143.152,54.776 142.349,54.144 141.5,53.553 C136.993,50.416 131.842,48.892 126.737,48.859 C125.539,48.704 124.341,48.624 123.15,48.624 L123.148,48.624 C122.94,48.624 122.732,48.627 122.524,48.631 C124.287,48.002 126.151,47.693 128.04,47.693 C128.05,47.693 128.06,47.693 128.07,47.693 C128.892,47.693 129.718,47.75 130.544,47.863 C133.683,48.292 136.813,49.526 139.635,51.49 C141.315,52.657 142.746,53.99 143.908,55.445" id="Fill-302" fill="#EFA65C"></path>
                <path d="M130.977,82.3780006 C130.97,82.3780006 130.962,82.3780006 130.955,82.3780006 C127.466,82.379 123.877,81.207 120.559,78.896 L121.548,77.475 C124.615,79.609 127.855,80.647 130.955,80.648 C135.469,80.64 139.725,78.469 142.832,74.02 C144.824,71.156 145.752,68.176 145.754,65.297 C145.753,64.159 145.607,63.033 145.32,61.934 C146.095,62.827 146.814,63.756 147.473,64.715 C147.481,64.909 147.484003,65.103 147.484003,65.297 C147.485,66.985 147.2,68.694 146.623,70.384 C146.087,71.954 145.298,73.507 144.252,75.009 C143.226,76.489 142.062,77.752 140.797,78.792 C138.396,80.767 135.627,81.941 132.728,82.277 C132.149,82.345 131.565,82.3780006 130.977,82.3780006 M120.559,78.896 C117.843,77.005 115.663,74.603 114.178,71.926 C112.748,69.349 111.962,66.517 111.959999,63.642 C111.959,60.546 112.883,57.41 114.871,54.557 C115.509,53.638 116.212,52.813 116.969,52.082 C118.197,51.734 119.459999,51.495 120.746,51.363 C119.064,52.356 117.55,53.742 116.292,55.546 C114.501,58.12 113.693,60.887 113.691,63.642 C113.687,68.844 116.616,74.043 121.548,77.475 L120.559,78.896 M146.028,58.835 C144.471,57.227 142.744,55.754 140.874,54.452 C140.431,54.144 139.983,53.847 139.53,53.562 C139.245,53.34 138.951,53.123 138.647,52.911 C136.104,51.14 133.305,50.025 130.525,49.608 C129.268,49.275 128.002,49.024 126.737,48.859 C131.842,48.892 136.993,50.416 141.5,53.553 C142.349,54.144 143.152,54.776 143.908,55.445 C144.763,56.515 145.473,57.651 146.028,58.835" id="Fill-303" fill="#F69E54"></path>
                <path d="M147.473,64.715 C146.814,63.756 146.095,62.827 145.32,61.934 C144.505,58.818 142.552,55.917 139.53,53.562 C139.983,53.847 140.431,54.144 140.874,54.452 C142.744,55.754 144.471,57.227 146.028,58.835 C146.56,59.969 146.95,61.146 147.192,62.352 C147.348,63.129 147.443,63.918 147.473,64.715 M116.969,52.082 C118.608,50.499 120.499,49.354 122.524,48.631 C122.732,48.627 122.94,48.624 123.148,48.624 L123.15,48.624 C124.341,48.624 125.539,48.704 126.737,48.859 C128.002,49.024 129.268,49.275 130.525,49.608 C129.703,49.485 128.882,49.423 128.07,49.423 C125.467,49.428 122.961,50.056 120.746,51.363 C119.46,51.495 118.197,51.734 116.969,52.082" id="Fill-304" fill="#F69E54"></path>
                <path d="M145.588,50.876 C145.31,50.876 145.031,50.876 144.752,50.876 C143.999,50.876 143.358,51.517 143.358,52.27 C143.358,53.026 143.996,53.664 144.752,53.664 C145.031,53.664 145.31,53.664 145.588,53.664 C146.342,53.664 146.982,53.023 146.982,52.27 C146.982,51.514 146.344,50.876 145.588,50.876" id="Fill-305" fill="#F9D792"></path>
                <path d="M151.164,70.113 C152.958,70.113 152.961,67.325 151.164,67.325 C149.37,67.325 149.367,70.113 151.164,70.113" id="Fill-306" fill="#F9D792"></path>
                <path d="M133.192,63.272 C133.099,63.18 133.006,63.087 132.913,62.994 C131.643,61.723 129.671,63.694 130.942,64.965 C131.035,65.058 131.128,65.151 131.221,65.244 C132.491,66.514 134.463,64.543 133.192,63.272" id="Fill-307" fill="#F9D792"></path>
                <path d="M130.106,50.261 C129.921,50.166 129.736,50.072 129.551,49.978 C128.88,49.636 128.039,49.802 127.644,50.478 C127.28,51.1 127.47,52.042 128.144,52.385 C128.329,52.479 128.514,52.574 128.699,52.668 C129.37,53.01 130.211,52.844 130.606,52.168 C130.97,51.546 130.78,50.604 130.106,50.261" id="Fill-308" fill="#F9D792"></path>
                <path d="M106.557,54.5 C108.351,54.5 108.354,51.713 106.557,51.713 C104.763,51.713 104.76,54.5 106.557,54.5" id="Fill-309" fill="#F9D792"></path>
                <path d="M118.545,46.137 C120.339,46.137 120.342,43.349 118.545,43.349 C116.752,43.349 116.749,46.137 118.545,46.137" id="Fill-310" fill="#F9D792"></path>
                <path d="M110.869,65.224 C110.776,65.317 110.683,65.41 110.59,65.503 C109.32,66.773 111.29,68.745 112.561,67.474 C112.654,67.381 112.747,67.288 112.84,67.195 C114.11,65.925 112.14,63.953 110.869,65.224" id="Fill-311" fill="#F9D792"></path>
                <path d="M131.649,76.804 C133.443,76.804 133.446,74.016 131.649,74.016 C129.855,74.016 129.852,76.804 131.649,76.804" id="Fill-312" fill="#F9D792"></path>
                <path d="M142.522,86.562 C144.315,86.562 144.318,83.774 142.522,83.774 C140.728,83.774 140.725,86.562 142.522,86.562" id="Fill-313" fill="#F9D792"></path>
                <path d="M128.861,99.665 C128.861,99.572 128.861,99.479 128.861,99.386 C128.861,98.633 128.22,97.992 127.467,97.992 C126.711,97.992 126.073,98.63 126.073,99.386 C126.073,99.479 126.073,99.572 126.073,99.665 C126.073,100.418 126.714,101.059 127.467,101.059 C128.223,101.059 128.861,100.421 128.861,99.665" id="Fill-314" fill="#F9D792"></path>
                <path d="M117.709,87.398 C117.709,87.491 117.709,87.584 117.709,87.677 C117.709,88.43 118.35,89.071 119.103,89.071 C119.859,89.071 120.497,88.433 120.497,87.677 C120.497,87.584 120.497,87.491 120.497,87.398 C120.497,86.645 119.856,86.004 119.103,86.004 C118.347,86.004 117.709,86.642 117.709,87.398" id="Fill-315" fill="#F9D792"></path>
                <path d="M117.002,73.03 C116.909,73.123 116.816,73.216 116.723,73.309 C115.453,74.579 117.424,76.551 118.695,75.28 C118.788,75.187 118.881,75.095 118.973,75.002 C120.243,73.731 118.273,71.759 117.002,73.03" id="Fill-316" fill="#F9D792"></path>
                <path d="M109.495,83.067 C109.402,82.974 109.309,82.881 109.216,82.788 C107.946,81.518 105.974,83.488 107.244,84.759 C107.337,84.852 107.43,84.945 107.523,85.038 C108.794,86.308 110.766,84.337 109.495,83.067" id="Fill-317" fill="#F9D792"></path>
                <path d="M100.703,70.67 C102.497,70.67 102.5,67.883 100.703,67.883 C98.909,67.883 98.906,70.67 100.703,70.67" id="Fill-318" fill="#F9D792"></path>
                <path d="M96.8,83.216 C98.594,83.216 98.596,80.428 96.8,80.428 C95.006,80.428 95.003,83.216 96.8,83.216" id="Fill-319" fill="#F9D792"></path>
                <path d="M112.133,100.78 C113.927,100.78 113.93,97.992 112.133,97.992 C110.339,97.992 110.336,100.78 112.133,100.78" id="Fill-320" fill="#F9D792"></path>
                <path d="M139.176,96.041 C140.97,96.041 140.973,93.253 139.176,93.253 C137.382,93.253 137.379,96.041 139.176,96.041" id="Fill-321" fill="#F9D792"></path>
                <path d="M67.098,122.703 C90.376,119.968 108.618,123.292 129.378,133.927 C127.874,136.43 127.122,137.681 125.619,140.183 C124.364,140.455 123.744,140.603 122.522,140.923 C103.265,132.029 87.5,129.692 66.61,132.486 C65.993,129.633 65.684,128.206 65.067,125.353 C65.854,124.284 66.26,123.753 67.098,122.703" id="Fill-322" fill="#D85A1E"></path>
                <path d="M122.522,140.923 C123.953,138.379 124.669,137.107 126.101,134.563 C105.566,124.768 87.687,122.041 65.067,125.353 C65.684,128.206 65.993,129.633 66.61,132.486 C87.5,129.691 103.265,132.029 122.522,140.923" id="Fill-323" fill="#FEBC30"></path>
                <path d="M62.822,72.212 C81.923,85.794 93.225,100.494 101.492,122.305 C98.699,123.153 97.302,123.577 94.508,124.425 C93.396,123.784 92.837,123.479 91.715,122.897 C83.395,103.384 73.268,91.078 55.899,79.142 C57.354,76.612 58.082,75.346 59.538,72.816 C60.838,72.55 61.495,72.429 62.822,72.212" id="Fill-324" fill="#D85A1E"></path>
                <path d="M91.715,122.897 C94.483,121.969 95.867,121.506 98.635,120.579 C89.971,99.542 78.538,85.529 59.538,72.816 C58.082,75.346 57.355,76.611 55.899,79.142 C73.269,91.078 83.396,103.384 91.715,122.897" id="Fill-325" fill="#FEBC30"></path>
                <path d="M142.001,132.032 C118.584,131.04 101.1,124.864 82.291,111.071 C84.172,108.838 85.113,107.722 86.994,105.49 C88.276,105.421 88.911,105.373 90.169,105.251 C107.772,117.087 122.967,121.896 144.035,122.45 C144.191,125.365 144.27,126.822 144.426,129.738 C143.481,130.668 142.995,131.127 142.001,132.032" id="Fill-326" fill="#D85A1E"></path>
                <path d="M90.169,105.251 C88.352,107.536 87.444,108.678 85.627,110.963 C104.348,123.891 121.568,129.419 144.426,129.738 C144.27,126.822 144.191,125.365 144.035,122.45 C122.967,121.896 107.771,117.087 90.169,105.251" id="Fill-327" fill="#FEBC30"></path>
                <path d="M112.723,144.55 C89.285,144.633 71.537,139.266 52.114,126.35 C53.891,124.034 54.78,122.876 56.557,120.559 C57.835,120.432 58.467,120.354 59.718,120.175 C77.844,131.191 93.244,135.298 114.315,134.885 C114.605,137.79 114.751,139.242 115.041,142.147 C114.138,143.121 113.675,143.601 112.723,144.55" id="Fill-328" fill="#D85A1E"></path>
                <path d="M59.718,120.175 C58.007,122.541 57.152,123.724 55.442,126.089 C74.736,138.145 92.191,142.877 115.041,142.147 C114.751,139.243 114.605,137.79 114.315,134.885 C93.244,135.298 77.844,131.192 59.718,120.175" id="Fill-329" fill="#FEBC30"></path>
                <path d="M82.496,122.37 C59.865,116.272 44.159,106.416 28.828,88.837 C31.153,87.071 32.315,86.188 34.64,84.422 C35.906,84.636 36.536,84.728 37.79,84.884 C52.372,100.29 66.144,108.31 86.579,113.466 C86.094,116.345 85.851,117.784 85.365,120.663 C84.238,121.364 83.664,121.705 82.496,122.37" id="Fill-330" fill="#D85A1E"></path>
                <path d="M37.79,84.884 C35.517,86.716 34.38,87.632 32.107,89.463 C47.541,106.178 63.131,115.344 85.365,120.663 C85.851,117.784 86.094,116.345 86.579,113.466 C66.144,108.31 52.372,100.29 37.79,84.884" id="Fill-331" fill="#FEBC30"></path>
                <path d="M50.638,85.061 C72.748,92.836 87.672,103.841 101.644,122.518 C99.194,124.105 97.968,124.898 95.518,126.485 C94.272,126.177 93.65,126.038 92.411,125.788 C79.024,109.334 65.891,100.306 45.899,93.634 C46.599,90.8 46.949,89.383 47.649,86.548 C48.825,85.934 49.423,85.636 50.638,85.061" id="Fill-332" fill="#D85A1E"></path>
                <path d="M92.411,125.788 C94.815,124.132 96.017,123.304 98.421,121.648 C84.282,103.825 69.422,93.517 47.649,86.548 C46.949,89.383 46.599,90.8 45.899,93.634 C65.891,100.306 79.024,109.334 92.411,125.788" id="Fill-333" fill="#FEBC30"></path>
                <path d="M35.466,67.825 C52.752,83.653 62.162,99.631 67.684,122.292 C64.807,122.79 63.369,123.039 60.493,123.537 C59.467,122.765 58.95,122.394 57.908,121.678 C52.051,101.29 43.514,87.832 27.743,73.851 C29.499,71.519 30.377,70.353 32.133,68.021 C33.456,67.917 34.123,67.878 35.466,67.825" id="Fill-334" fill="#D85A1E"></path>
                <path d="M57.908,121.678 C60.77,121.098 62.2,120.808 65.061,120.228 C59.049,98.286 49.425,82.974 32.133,68.021 C30.377,70.353 29.499,71.519 27.743,73.851 C43.514,87.832 52.051,101.29 57.908,121.678" id="Fill-335" fill="#FEBC30"></path>
                <path d="M85.347,135.266 C62.254,131.266 45.711,122.889 28.835,106.787 C30.989,104.816 32.065,103.83 34.219,101.859 C35.499,101.956 36.135,101.99 37.398,102.031 C53.329,116.037 67.778,122.762 88.599,126.026 C88.379,128.937 88.269,130.393 88.048,133.304 C86.99,134.105 86.45,134.498 85.347,135.266" id="Fill-336" fill="#D85A1E"></path>
                <path d="M37.398,102.031 C35.302,104.063 34.254,105.079 32.158,107.11 C49.057,122.342 65.421,130.043 88.048,133.304 C88.269,130.393 88.379,128.937 88.599,126.026 C67.778,122.762 53.329,116.037 37.398,102.031" id="Fill-337" fill="#FEBC30"></path>
                <path d="M103.413,0.934 C125.523,8.709 140.448,19.713 154.42,38.39 C151.969,39.977 150.744,40.771 148.293,42.358 C147.047,42.05 146.425,41.911 145.186,41.661 C131.799,25.207 118.666,16.178 98.674,9.506 C99.374,6.672 99.724,5.255 100.424,2.421 C101.6,1.806 102.198,1.509 103.413,0.934" id="Fill-338" fill="#D85A1E"></path>
                <path d="M145.186,41.661 C147.591,40.005 148.793,39.177 151.197,37.521 C137.057,19.697 122.197,9.389 100.424,2.421 C99.724,5.255 99.374,6.672 98.674,9.506 C118.666,16.178 131.799,25.207 145.186,41.661" id="Fill-339" fill="#FEBC30"></path>
                <path d="M75.489,14.114 C98.41,9.222 116.883,10.832 138.543,19.486 C137.279,22.118 136.647,23.433 135.383,26.065 C134.159,26.452 133.556,26.658 132.369,27.09 C112.367,20.029 96.452,19.171 75.914,23.9 C75.034,21.116 74.594,19.725 73.714,16.941 C74.397,15.803 74.752,15.238 75.489,14.114" id="Fill-340" fill="#D85A1E"></path>
                <path d="M132.369,27.09 C133.557,24.424 134.151,23.09 135.339,20.424 C113.982,12.586 95.927,11.537 73.714,16.941 C74.594,19.725 75.034,21.116 75.914,23.9 C96.452,19.171 112.367,20.029 132.369,27.09" id="Fill-341" fill="#FEBC30"></path>
                <path d="M129.862,23.427 C108.67,33.439 90.32,36.102 67.253,32.638 C67.881,29.786 68.195,28.361 68.822,25.51 C69.925,24.853 70.465,24.515 71.522,23.822 C92.609,26.115 108.297,23.305 127.207,13.999 C128.701,16.507 129.448,17.761 130.942,20.269 C130.538,21.533 130.322,22.165 129.862,23.427" id="Fill-342" fill="#D85A1E"></path>
                <path d="M71.522,23.822 C70.976,26.69 70.703,28.123 70.157,30.991 C92.742,33.73 110.558,30.616 130.942,20.269 C129.448,17.761 128.701,16.507 127.207,13.999 C108.297,23.306 92.609,26.115 71.522,23.822" id="Fill-343" fill="#FEBC30"></path>
                <path d="M38.898,61.628 C45.41,72.574 59.561,76.168 70.507,69.657 C81.452,63.146 85.047,48.995 78.536,38.049 C72.025,27.103 57.873,23.509 46.928,30.02 C35.982,36.531 32.387,50.683 38.898,61.628" id="Fill-344" fill="#A3040E"></path>
                <path d="M58.95,26.916 C54.902,26.916 50.791,27.983 47.043,30.213 C36.097,36.724 32.757,50.463 39.268,61.408 C43.657,68.785 51.424,73.048 59.372,73.048 C63.216,73.048 67.1,72.052 70.668,69.929 C81.614,63.418 85.049,48.993 78.538,38.048 C74.257,30.851 66.721,26.916 58.95,26.916 M58.95,29.965 C65.983,29.965 72.326,33.569 75.918,39.607 C78.666,44.226 79.472,49.668 78.187,54.928 C76.902,60.194 73.678,64.591 69.109,67.309 C66.151,69.068 62.784,69.999 59.372,69.999 C52.312,69.999 45.613,66.109 41.889,59.849 C39.146,55.238 38.322,49.922 39.569,44.88 C40.817,39.834 44.025,35.556 48.601,32.834 C51.756,30.957 55.335,29.965 58.95,29.965" id="Fill-345" fill="#C6C6C5"></path>
                <path d="M58.677,26.805 L58.677,29.854 C60.126,29.854 61.581,30.014 63,30.33 L63.662,27.353 C62.624,27.123 61.572,26.964 60.51,26.879 L60.509,26.879 L60.498,26.878 L60.441,26.873 L60.43,26.872 L60.429,26.872 L60.373,26.868 L60.372,26.868 L60.361,26.867 L60.304,26.863 L60.236,26.858 L60.235,26.858 L60.224,26.857 L60.212,26.857 L60.178,26.854 L60.166,26.854 L60.156,26.853 L60.155,26.853 L60.145,26.852 L60.143,26.852 L60.11,26.85 L60.099,26.849 L60.086,26.849 L60.076,26.848 L60.075,26.848 L60.042,26.846 L60.04,26.846 L60.031,26.845 L60.019,26.845 L60.017,26.844 L60.006,26.844 L59.973,26.842 L59.972,26.842 L59.962,26.841 L59.95,26.841 L59.949,26.84 L59.938,26.84 L59.904,26.838 L59.903,26.838 L59.893,26.837 L59.88,26.837 L59.871,26.836 L59.869,26.836 L59.835,26.834 L59.822,26.834 L59.813,26.833 L59.8,26.833 L59.789,26.832 L59.767,26.831 L59.756,26.831 L59.753,26.83 L59.733,26.83 L59.731,26.829 L59.698,26.828 L59.697,26.828 L59.688,26.827 L59.673,26.827 L59.665,26.826 L59.663,26.826 L59.629,26.825 L59.618,26.825 L59.616,26.824 L59.594,26.824 L59.584,26.823 L59.572,26.823 L59.561,26.822 L59.547,26.822 L59.539,26.821 L59.515,26.821 L59.514,26.82 L59.49,26.82 L59.481,26.819 L59.459,26.819 L59.456,26.818 L59.446,26.818 L59.423,26.817 L59.398,26.817 L59.39,26.816 L59.377,26.816 L59.354,26.815 L59.332,26.815 L59.33,26.814 L59.319,26.814 L59.285,26.813 L59.261,26.813 L59.252,26.812 L59.217,26.812 L59.215,26.811 L59.171,26.811 L59.17,26.81 L59.123,26.81 L59.115,26.809 L59.068,26.809 L59.065,26.808 L59.008,26.808 L59,26.807 L58.927,26.807 L58.919,26.806 L58.8,26.806 L58.793,26.805 L58.677,26.805 C54.683,26.805 50.636,27.85 46.943,30.047 C39.691,34.361 35.6599993,42.017 35.6599993,49.877 C35.659,53.879 36.704,57.933 38.901,61.627 L38.907,61.637 L38.909,61.639 L38.913,61.647 L38.916,61.651 L38.919,61.657 L38.922,61.661 L38.926,61.667 L38.928,61.671 L38.932,61.678 L38.934,61.681 L38.938,61.688 L38.94,61.692 L38.946,61.701 L38.946,61.702 L38.952,61.712 L38.954,61.715 L38.959,61.722 L38.961,61.726 L38.965,61.733 L38.967,61.736 L38.971,61.743 L38.973,61.747 L38.977,61.753 L38.979,61.757 L38.983,61.764 L38.985,61.767 L38.99,61.774 L38.992,61.777 L38.997,61.786 L38.998,61.787 L39.004,61.797 L39.006,61.801 L39.01,61.808 L39.012,61.811 L39.016,61.818 L39.019,61.822 L39.022,61.828 L39.025,61.832 L39.028,61.838 L39.031,61.842 L39.035,61.849 L39.037,61.852 L39.042,61.859 L39.043,61.862 L39.05,61.872 L39.051,61.875 L39.056,61.882 L39.058,61.887 L39.062,61.893 L39.064,61.897 L39.068,61.903 L39.071,61.907 L39.074,61.913 L39.077,61.917 L39.081,61.923 L39.083,61.927 L39.087,61.934 L39.089,61.937 L39.094,61.944 L39.096,61.947 L39.102,61.957 L39.104,61.961 L39.108,61.967 L39.111,61.972 L39.114,61.977 L39.117,61.982 L39.12,61.987 L39.123,61.992 L39.126,61.997 L39.129,62.002 L39.133,62.007 L39.136,62.012 L39.139,62.018 L39.142,62.022 L39.146,62.028 L39.15,62.035 L39.154,62.042 L39.157,62.046 L39.1599993,62.051 L39.163,62.056 L39.166,62.062 L39.169,62.066 L39.173,62.072 L39.175,62.076 L39.179,62.082 L39.182,62.086 L39.185,62.092 L39.188,62.097 L39.192,62.102 L39.194,62.106 L39.2,62.116 L39.203,62.12 L39.207,62.126 L39.21,62.131 L39.213,62.136 L39.216,62.141 L39.219,62.146 L39.222,62.15 L39.226,62.156 L39.229,62.16 L39.232,62.166 L39.235,62.17 L39.238,62.176 L39.241,62.181 L39.246,62.188 L39.247,62.19 L39.254,62.2 L39.256,62.204 L39.26,62.21 L39.263,62.214 L39.266,62.22 L39.269,62.224 L39.273,62.23 L39.275,62.234 L39.279,62.24 L39.282,62.244 L39.285,62.25 L39.288,62.254 L39.292,62.26 L39.294,62.264 L39.298,62.271 L39.303,62.278 L39.307,62.284 L39.31,62.289 L39.313,62.293 L39.316,62.298 L39.319,62.303 L39.323,62.309 L39.326,62.313 L39.329,62.318 L39.332,62.323 L39.335,62.328 L39.339,62.333 L39.342,62.338 L39.345,62.343 L39.353,62.355 L39.354,62.357 L39.357,62.362 L39.36,62.367 L39.363,62.372 L39.367,62.377 L39.37,62.382 L39.373,62.386 L39.377,62.392 L39.379,62.396 L39.383,62.401 L39.389,62.411 L39.392,62.416 L39.396,62.421 L39.399,62.426 L39.404,62.435 L39.408,62.44 L39.411,62.445 L39.414,62.45 L39.418,62.455 L39.421,62.46 L39.424,62.465 L39.427,62.469 L39.431,62.475 L39.433,62.479 L39.437,62.485 L39.44,62.489 L39.443,62.494 L39.447,62.499 L39.45,62.504 L39.455,62.512 L39.458,62.516 L39.462,62.523 L39.465,62.527 L39.469,62.533 L39.472,62.538 L39.475,62.543 L39.478,62.548 L39.481,62.552 L39.485,62.558 L39.488,62.562 L39.491,62.567 L39.494,62.572 L39.498,62.577 L39.501,62.582 L39.506,62.589 L39.51,62.596 L39.513,62.6 L39.517,62.606 L39.52,62.611 L39.523,62.615 L39.527,62.621 L39.53,62.625 L39.533,62.63 L39.536,62.635 L39.54,62.64 L39.542,62.644 L39.546,62.65 L39.549,62.655 L39.552,62.659 L39.565,62.678 L39.568,62.683 L39.572,62.688 L39.575,62.693 L39.578,62.697 L39.581,62.703 L39.584,62.707 L39.588,62.712 L39.591,62.717 L39.594,62.722 L39.598,62.727 L39.601,62.732 L39.607,62.741 L39.614,62.751 L39.617,62.755 L39.62,62.76 L39.624,62.765 L39.627,62.77 L39.63,62.775 L39.633,62.78 L39.637,62.785 L39.64,62.789 L39.643,62.794 L39.646,62.799 L39.65,62.804 L39.653,62.809 L39.656,62.813 L39.6599993,62.82 L39.664,62.826 L39.669,62.832 L39.672,62.836 L39.676,62.842 L39.679,62.847 L39.682,62.852 L39.686,62.857 L39.689,62.861 L39.692,62.866 L39.695,62.871 L39.699,62.876 L39.702,62.88 L39.705,62.886 L39.708,62.889 L39.712,62.895 L39.712,62.896 L39.723,62.911 L39.725,62.914 L39.729,62.919 L39.731,62.923 L39.735,62.929 L39.738,62.932 L39.742,62.938 L39.744,62.942 L39.748,62.948 L39.751,62.952 L39.755,62.957 L39.757,62.961 L39.761,62.967 L39.763,62.969 L39.778,62.991 L39.781,62.995 L39.785,63.001 L39.787,63.004 L39.791,63.01 L39.794,63.014 L39.798,63.019 L39.8,63.023 L39.804,63.029 L39.807,63.033 L39.811,63.038 L39.813,63.042 L39.818,63.048 L39.819,63.05 L39.828,63.063 L39.83,63.066 L39.834,63.071 L39.837,63.076 L39.84,63.081 L39.844,63.085 L39.847,63.091 L39.85,63.095 L39.854,63.1 L39.857,63.105 L39.86,63.109 L39.863,63.113 L39.867,63.119 L39.869,63.122 L39.884,63.143 L39.887,63.147 L39.891,63.152 L39.894,63.156 L39.897,63.162 L39.9,63.166 L39.904,63.171 L39.907,63.175 L39.911,63.181 L39.913,63.184 L39.917,63.19 L39.92,63.194 L39.924,63.2 L39.926,63.202 L39.941,63.224 L39.944,63.227 L39.947,63.232 L39.95,63.237 L39.954,63.242 L39.957,63.246 L39.961,63.251 L39.964,63.255 L39.968,63.261 L39.97,63.264 L39.974,63.27 L39.977,63.273 L39.981,63.28 L39.982,63.281 L39.993,63.296 L39.994,63.298 L39.998,63.303 L40.001,63.307 L40.004,63.312 L40.008,63.317 L40.011,63.322 L40.014,63.326 L40.018,63.331 L40.021,63.335 L40.025,63.34 L40.028,63.345 L40.032,63.35 L40.034,63.354 L40.049,63.373 L40.052,63.378 L40.054,63.382 L40.059,63.387 L40.062,63.391 L40.065,63.396 L40.069,63.401 L40.072,63.406 L40.076,63.411 L40.079,63.415 L40.082,63.42 L40.085,63.424 L40.089,63.43 L40.091,63.432 L40.106,63.453 L40.109,63.457 L40.113,63.462 L40.116,63.466 L40.12,63.472 L40.123,63.476 L40.127,63.481 L40.129,63.485 L40.133,63.49 L40.136,63.494 L40.14,63.5 L40.143,63.503 L40.158,63.524 L40.1599993,63.527 L40.165,63.533 L40.167,63.536 L40.171,63.542 L40.174,63.545 L40.178,63.551 L40.181,63.555 L40.185,63.56 L40.187,63.564 L40.192,63.569 L40.194,63.573 L40.198,63.579 L40.201,63.582 L40.211,63.595 L40.212,63.596 L40.216,63.603 L40.218,63.605 L40.223,63.611 L40.225,63.615 L40.229,63.62 L40.232,63.624 L40.236,63.629 L40.239,63.633 L40.243,63.639 L40.246,63.643 L40.25,63.648 L40.253,63.652 L40.257,63.657 L40.262,63.664 L40.265,63.668 L40.27,63.675 L40.274,63.68 L40.277,63.684 L40.281,63.689 L40.284,63.694 L40.288,63.698 L40.291,63.703 L40.295,63.708 L40.298,63.712 L40.301,63.717 L40.305,63.721 L40.308,63.726 L40.312,63.731 L40.315,63.735 L40.319,63.741 L40.326,63.749 L40.329,63.753 L40.333,63.759 L40.336,63.762 L40.34,63.768 L40.343,63.772 L40.347,63.777 L40.35,63.781 L40.354,63.786 L40.357,63.79 L40.361,63.795 L40.364,63.799 L40.368,63.804 L40.371,63.809 L40.377,63.817 L40.381,63.822 L40.385,63.827 L40.388,63.832 L40.392,63.836 L40.395,63.841 L40.399,63.846 L40.402,63.85 L40.406,63.855 L40.409,63.859 L40.413,63.864 L40.416,63.868 L40.42,63.873 L40.423,63.877 L40.427,63.882 L40.429,63.885 L40.438,63.897 L40.44,63.9 L40.444,63.905 L40.447,63.909 L40.451,63.914 L40.454,63.918 L40.458,63.923 L40.462,63.928 L40.465,63.932 L40.469,63.937 L40.472,63.941 L40.476,63.947 L40.479,63.951 L40.483,63.956 L40.486,63.96 L40.493,63.969 L40.496,63.972 L40.5,63.978 L40.504,63.982 L40.507,63.987 L40.511,63.991 L40.514,63.996 L40.518,64.001 L40.521,64.005 L40.525,64.01 L40.529,64.015 L40.532,64.019 L40.536,64.024 L40.539,64.028 L40.543,64.033 L40.549,64.041 L40.553,64.046 L40.557,64.05 L40.56,64.055 L40.564,64.06 L40.567,64.064 L40.571,64.069 L40.574,64.073 L40.578,64.078 L40.581,64.082 L40.585,64.087 L40.588,64.091 L40.592,64.096 L40.595,64.1 L40.599,64.105 L40.602,64.109 L40.61,64.119 L40.613,64.123 L40.617,64.128 L40.62,64.132 L40.624,64.137 L40.627,64.141 L40.631,64.146 L40.634,64.15 L40.639,64.155 L40.641,64.158 L40.645,64.164 L40.648,64.167 L40.653,64.173 L40.655,64.175 L40.671,64.196 L40.673,64.199 L40.678,64.205 L40.68,64.208 L40.684,64.213 L40.688,64.217 L40.692,64.223 L40.694,64.225 L40.699,64.232 L40.701,64.234 L40.706,64.241 L40.708,64.243 L40.732,64.273 L40.734,64.275 L40.738,64.281 L40.741,64.285 L40.746,64.29 L40.748,64.293 L40.753,64.299 L40.755,64.302 L40.76,64.308 L40.762,64.31 L40.767,64.317 L40.769,64.319 L40.785,64.339 L40.788,64.343 L40.792,64.348 L40.795,64.352 L40.799,64.356 L40.802,64.36 L40.807,64.366 L40.81,64.369 L40.814,64.375 L40.816,64.378 L40.821,64.384 L40.823,64.386 L40.828,64.393 L40.829,64.394 L40.846,64.415 L40.849,64.419 L40.853,64.423 L40.857,64.428 L40.86,64.432 L40.864,64.437 L40.868,64.441 L40.871,64.445 L40.875,64.45 L40.878,64.454 L40.882,64.459 L40.885,64.462 L40.89,64.468 L40.893,64.473 L40.9,64.48 L40.904,64.485 L40.907,64.49 L40.911,64.494 L40.915,64.499 L40.918,64.503 L40.922,64.508 L40.925,64.511 L40.93,64.517 L40.933,64.52 L40.937,64.526 L40.939,64.528 L40.944,64.535 L40.946,64.536 L40.956,64.549 L40.958,64.551 L40.963,64.557 L40.965,64.56 L40.97,64.566 L40.972,64.569 L40.977,64.575 L40.98,64.578 L40.984,64.583 L40.987,64.587 L40.992,64.592 L40.994,64.595 L40.999,64.601 L41.001,64.604 L41.006,64.61 L41.007,64.61 L41.018,64.624 L41.02,64.626 L41.025,64.632 L41.027,64.635 L41.032,64.641 L41.034,64.644 L41.039,64.649 L41.042,64.653 L41.046,64.658 L41.049,64.661 L41.054,64.667 L41.056,64.67 L41.061,64.676 L41.063,64.678 L41.08,64.698 L41.082,64.701 L41.087,64.706 L41.09,64.71 L41.094,64.715 L41.097,64.719 L41.101,64.724 L41.104,64.727 L41.108,64.732 L41.112,64.736 L41.116,64.741 L41.119,64.745 L41.123,64.75 L41.127,64.754 L41.136,64.765 L41.138,64.767 L41.142,64.772 L41.145,64.775 L41.149,64.78 L41.152,64.784 L41.156,64.789 L41.1599993,64.793 L41.164,64.798 L41.167,64.802 L41.175,64.81 L41.179,64.815 L41.182,64.819 L41.199,64.839 L41.2,64.841 L41.205,64.846 L41.208,64.85 L41.212,64.854 L41.216,64.859 L41.219,64.863 L41.223,64.867 L41.227,64.872 L41.23,64.876 L41.234,64.88 L41.238,64.885 L41.241,64.889 L41.246,64.894 L41.249,64.898 L41.252,64.901 L41.26,64.911 L41.264,64.915 L41.267,64.919 L41.271,64.923 L41.275,64.928 L41.279,64.932 L41.282,64.937 L41.286,64.941 L41.29,64.945 L41.294,64.95 L41.297,64.954 L41.301,64.958 L41.305,64.963 L41.309,64.967 L41.316,64.975 L41.319,64.979 L41.324,64.984 L41.327,64.988 L41.331,64.993 L41.334,64.997 L41.338,65.001 L41.342,65.006 L41.345,65.009 L41.35,65.015 L41.353,65.018 L41.358,65.023 L41.361,65.027 L41.365,65.032 L41.368,65.036 L41.376,65.044 L41.378,65.047 L41.383,65.053 L41.387,65.057 L41.391,65.061 L41.394,65.065 L41.398,65.07 L41.402,65.074 L41.406,65.079 L41.409,65.083 L41.413,65.087 L41.417,65.092 L41.425,65.1 L41.429,65.105 L41.444,65.122 L41.447,65.125 L41.451,65.131 L41.455,65.134 L41.458,65.138 L41.462,65.143 L41.466,65.147 L41.47,65.151 L41.474,65.156 L41.477,65.16 L41.481,65.164 L41.485,65.169 L41.489,65.173 L41.494,65.179 L41.499,65.184 L41.504,65.19 L41.507,65.194 L41.511,65.198 L41.515,65.203 L41.519,65.207 L41.522,65.211 L41.526,65.216 L41.53,65.22 L41.534,65.224 L41.538,65.228 L41.542,65.233 L41.545,65.237 L41.55,65.242 L41.553,65.245 L41.56,65.254 L41.564,65.257 L41.568,65.262 L41.571,65.266 L41.576,65.271 L41.58,65.275 L41.583,65.279 L41.587,65.283 L41.591,65.288 L41.595,65.292 L41.599,65.296 L41.602,65.3 L41.606,65.305 L41.61,65.309 L41.615,65.314 L41.618,65.318 L41.625,65.326 L41.628,65.329 L41.633,65.334 L41.636,65.338 L41.64,65.342 L41.644,65.347 L41.652,65.355 L41.656,65.359 L41.659,65.364 L41.664,65.368 L41.667,65.372 L41.671,65.377 L41.675,65.381 L41.682,65.389 L41.684,65.391 L41.69,65.398 L41.693,65.401 L41.698,65.406 L41.701,65.41 L41.705,65.414 L41.709,65.419 L41.717,65.427 L41.721,65.431 L41.724,65.435 L41.729,65.44 L41.732,65.444 L41.737,65.449 L41.74,65.452 L41.748,65.461 L41.749,65.462 L41.755,65.469 L41.758,65.472 L41.763,65.478 L41.771,65.486 L41.774,65.49 L41.787,65.503 L41.79,65.507 L41.795,65.513 L41.797,65.515 L41.813,65.532 L41.815,65.534 L41.821,65.54 L41.824,65.544 L41.828,65.549 L41.832,65.552 L41.836,65.557 L41.84,65.561 L41.844,65.565 L41.847,65.569 L41.852,65.575 L41.855,65.578 L41.863,65.586 L41.871,65.594 L41.873,65.597 L41.879,65.603 L41.881,65.606 L41.886,65.611 L41.889,65.614 L41.894,65.62 L41.897,65.623 L41.902,65.628 L41.905,65.631 L41.911,65.637 L41.913,65.64 L41.919,65.646 L41.921,65.648 L41.928,65.656 L41.937,65.665 L41.939,65.668 L41.944,65.673 L41.947,65.677 L41.952,65.682 L41.956,65.685 L41.96,65.69 L41.963,65.694 L41.968,65.698 L41.972,65.702 L41.976,65.707 L41.979,65.71 L41.985,65.717 L41.987,65.719 L42.003,65.735 L42.005,65.738 L42.011,65.744 L42.013,65.746 L42.019,65.752 L42.021,65.755 L42.027,65.761 L42.029,65.764 L42.035,65.769 L42.037,65.772 L42.043,65.778 L42.045,65.78 L42.053,65.788 L42.053,65.789 L42.061,65.797 L42.063,65.799 L42.069,65.805 L42.072,65.808 L42.077,65.814 L42.08,65.817 L42.085,65.822 L42.088,65.825 L42.093,65.83 L42.096,65.834 L42.101,65.839 L42.104,65.842 L42.109,65.847 L42.112,65.85 L42.118,65.857 L42.121,65.86 L42.128,65.867 L42.131,65.87 L42.136,65.875 L42.139,65.879 L42.144,65.883 L42.147,65.887 L42.155,65.895 L42.1599993,65.9 L42.168,65.908 L42.171,65.912 L42.176,65.917 L42.179,65.92 L42.187,65.928 L42.189,65.93 L42.195,65.936 L42.198,65.939 L42.203,65.944 L42.206,65.948 L42.211,65.953 L42.214,65.956 L42.219,65.961 L42.222,65.965 L42.226,65.969 L42.23,65.973 L42.234,65.977 L42.238,65.981 L42.244,65.987 L42.246,65.989 L42.254,65.997 L42.256,66 L42.262,66.006 L42.265,66.008 L42.27,66.014 L42.273,66.016 L42.279,66.022 L42.281,66.025 L42.286,66.03 L42.289,66.033 L42.294,66.039 L42.297,66.042 L42.303,66.047 L42.305,66.05 L42.313,66.058 L42.314,66.059 L42.321,66.066 L42.324,66.069 L42.33,66.074 L42.332,66.077 L42.337,66.083 L42.341,66.086 L42.345,66.091 L42.349,66.094 L42.353,66.099 L42.357,66.102 L42.362,66.107 L42.365,66.11 L42.37,66.116 L42.381,66.127 L42.383,66.128 L42.389,66.135 L42.392,66.137 L42.397,66.143 L42.4,66.146 L42.405,66.151 L42.408,66.154 L42.413,66.159 L42.421,66.167 L42.425,66.171 L42.452,66.198 L42.457,66.203 L42.46,66.206 L42.465,66.211 L42.473,66.219 L42.477,66.223 L42.481,66.227 L42.485,66.231 L42.489,66.236 L42.493,66.239 L42.498,66.244 L42.501,66.247 L42.507,66.253 L42.511,66.257 L42.517,66.263 L42.519,66.265 L42.525,66.271 L42.528,66.274 L42.533,66.279 L42.537,66.282 L42.541,66.287 L42.545,66.29 L42.55,66.296 L42.553,66.298 L42.558,66.304 L42.561,66.306 L42.568,66.313 L42.569,66.315 L42.577,66.323 L42.579,66.325 L42.585,66.331 L42.588,66.334 L42.593,66.339 L42.597,66.342 L42.601,66.347 L42.605,66.35 L42.61,66.355 L42.613,66.358 L42.618,66.363 L42.621,66.366 L42.627,66.372 L42.629,66.374 L42.645,66.39 L42.649,66.393 L42.665,66.409 L42.67,66.414 L42.674,66.417 L42.678,66.422 L42.682,66.425 L42.687,66.43 L42.69,66.433 L42.697,66.44 L42.698,66.441 L42.706,66.449 L42.708,66.451 L42.714,66.457 L42.717,66.46 L42.723,66.465 L42.726,66.468 L42.731,66.473 L42.734,66.476 L42.739,66.481 L42.742,66.484 L42.748,66.489 L42.751,66.492 L42.757,66.498 L42.759,66.5 L42.775,66.516 L42.778,66.519 L42.783,66.524 L42.787,66.527 L42.803,66.543 L42.809,66.548 L42.811,66.551 L42.817,66.556 L42.82,66.559 L42.826,66.565 L42.828,66.567 L42.836,66.574 L42.837,66.576 L42.845,66.582 L42.847,66.585 L42.853,66.59 L42.856,66.593 L42.861,66.598 L42.864,66.601 L42.87,66.606 L42.873,66.609 L42.878,66.615 L42.881,66.617 L42.887,66.623 L42.889,66.625 L42.906,66.641 L42.907,66.642 L42.914,66.649 L42.917,66.651 L42.922,66.656 L42.926,66.66 L42.931,66.664 L42.934,66.668 L42.939,66.672 L42.948,66.681 L42.951,66.683 L42.956,66.689 L42.959,66.691 L42.976,66.707 L42.977,66.708 L42.984,66.715 L42.987,66.717 L42.992,66.722 L42.995,66.725 L43.001,66.73 L43.003,66.733 L43.009,66.739 L43.012,66.741 L43.018,66.747 L43.02,66.749 L43.027,66.755 L43.029,66.757 L43.045,66.772 L43.049,66.775 L43.054,66.78 L43.057,66.783 L43.062,66.788 L43.066,66.791 L43.071,66.796 L43.074,66.799 L43.079,66.804 L43.082,66.807 L43.088,66.812 L43.09,66.814 L43.098,66.822 L43.099,66.822 L43.107,66.83 L43.109,66.832 L43.116,66.838 L43.118,66.84 L43.124,66.846 L43.127,66.848 L43.133,66.853 L43.136,66.856 L43.141,66.862 L43.144,66.864 L43.15,66.87 L43.152,66.872 L43.1599993,66.879 L43.161,66.879 L43.178,66.895 L43.179,66.896 L43.187,66.903 L43.188,66.905 L43.195,66.911 L43.197,66.913 L43.203,66.918 L43.206,66.921 L43.212,66.927 L43.214,66.929 L43.221,66.935 L43.223,66.936 L43.249,66.96 L43.249,66.961 L43.258,66.968 L43.259,66.969 L43.266,66.976 L43.268,66.977 L43.274,66.983 L43.277,66.986 L43.283,66.991 L43.285,66.993 L43.293,67 L43.294,67.001 L43.311,67.017 L43.312,67.017 L43.32,67.024 L43.321,67.026 L43.328,67.032 L43.33,67.034 L43.337,67.04 L43.339,67.042 L43.345,67.047 L43.354,67.056 L43.356,67.058 L43.364,67.064 L43.365,67.065 L43.382,67.081 L43.384,67.082 L43.391,67.088 L43.393,67.091 L43.399,67.096 L43.402,67.099 L43.408,67.104 L43.41,67.106 L43.416,67.111 L43.419,67.114 L43.425,67.119 L43.428,67.121 L43.436,67.129 L43.454,67.145 L43.456,67.146 L43.462,67.152 L43.464,67.154 L43.471,67.16 L43.473,67.162 L43.479,67.168 L43.482,67.17 L43.488,67.175 L43.491,67.178 L43.498,67.185 L43.499,67.185 L43.517,67.201 L43.525,67.208 L43.527,67.21 L43.534,67.216 L43.536,67.218 L43.542,67.223 L43.545,67.226 L43.551,67.231 L43.553,67.233 L43.56,67.239 L43.562,67.241 L43.588,67.264 L43.59,67.265 L43.597,67.271 L43.599,67.273 L43.606,67.279 L43.608,67.281 L43.615,67.287 L43.617,67.289 L43.624,67.295 L43.625,67.296 L43.633,67.303 L43.634,67.304 L43.661,67.327 L43.662,67.328 L43.669,67.334 L43.671,67.336 L43.678,67.342 L43.68,67.344 L43.687,67.35 L43.689,67.351 L43.697,67.358 L43.697,67.359 L43.706,67.366 L43.706,67.367 L43.724,67.382 L43.725,67.383 L43.733,67.39 L43.734,67.391 L43.741,67.397 L43.744,67.399 L43.75,67.405 L43.752,67.406 L43.76,67.413 L43.761,67.414 L43.769,67.421 L43.77,67.421 L43.797,67.444 L43.798,67.445 L43.805,67.452 L43.807,67.453 L43.814,67.459 L43.816,67.461 L43.823,67.467 L43.825,67.468 L43.833,67.475 L43.834,67.476 L43.869,67.507 L43.871,67.507 L43.878,67.514 L43.88,67.515 L43.887,67.522 L43.889,67.523 L43.896,67.529 L43.897,67.53 L43.905,67.537 L43.906,67.538 L43.933,67.561 L43.934,67.561 L43.942,67.568 L43.944,67.569 L43.951,67.576 L43.953,67.577 L43.96,67.583 L43.962,67.585 L43.969,67.591 L43.971,67.592 L43.979,67.599 L44.007,67.622 L44.007,67.623 L44.016,67.63 L44.025,67.638 L44.034,67.645 L44.035,67.646 L44.071,67.676 L44.08,67.683 L44.081,67.684 L44.089,67.691 L44.09,67.692 L44.098,67.698 L44.099,67.699 L44.107,67.706 L44.108,67.707 L44.163,67.752 L44.164,67.752 L44.172,67.76 L44.173,67.76 L44.181,67.767 L44.182,67.767 L44.219,67.798 L44.228,67.805 L44.228,67.806 L44.237,67.812 L44.238,67.813 L44.247,67.82 L44.312,67.873 L44.367,67.918 L44.368,67.918 L44.376,67.925 L44.386,67.933 L44.441,67.977 L44.442,67.978 L44.451,67.985 L44.46,67.992 L44.46,67.993 L44.507,68.029 L44.507,68.03 L44.516,68.036 L44.517,68.038 L44.526,68.044 L44.526,68.045 L44.535,68.052 L44.573,68.081 L44.582,68.089 L44.591,68.096 L44.592,68.096 L44.601,68.103 L44.648,68.14 L44.657,68.147 L44.657,68.148 L44.666,68.154 L44.667,68.155 L44.733,68.206 L44.742,68.213 L44.799,68.257 L44.818,68.271 L45.026,68.429 L45.027,68.429 L45.036,68.436 L45.037,68.436 L45.084,68.472 L45.093,68.479 L45.094,68.479 L45.103,68.485 L45.104,68.487 L45.113,68.493 L45.1599993,68.528 L45.161,68.529 L45.17,68.535 L45.171,68.536 L45.18,68.543 L45.238,68.585 C48.538,70.994 52.404,72.506 56.404,72.989 L56.769,69.961 C50.454,69.2 44.754,65.501 41.522,60.068 C35.889,50.599 39.021,38.307 48.502,32.667 C51.596,30.827 55.114,29.854 58.677,29.854 L58.677,26.805" id="Fill-346" fill="#9C9B9B"></path>
                <path d="M59.372,69.999 C52.312,69.999 45.613,66.109 41.889,59.849 C39.146,55.238 38.322,49.922 39.569,44.88 C40.817,39.834 44.025,35.556 48.601,32.834 C51.756,30.957 55.335,29.965 58.95,29.965 C65.983,29.965 72.326,33.569 75.918,39.607 C78.666,44.226 79.472,49.668 78.187,54.928 C76.902,60.194 73.678,64.591 69.109,67.309 C66.151,69.068 62.784,69.999 59.372,69.999 M57.991,66.716 C59.022,66.932 60.071,67.055 61.116,67.087 C62.573,67.067 64.133,66.947 65.443,66.602 C65.781,66.506 66.099,66.457 66.46,66.326 C66.826,66.182 67.19,66.039 67.55,65.898 L68.087,65.687 L68.221,65.634 C68.169,65.664 68.155,65.672 68.156,65.672 C68.156,65.672 68.163,65.669 68.169,65.665 C68.176,65.662 68.182,65.658 68.183,65.658 C68.183,65.658 68.182,65.659 68.18,65.66 L68.209,65.646 L68.269,65.617 L68.505,65.503 C68.817,65.346 69.142,65.21 69.441,65.038 C71.893,63.739 73.834,61.903 75.198,60.028 C76.581,58.151 77.415,56.246 77.914,54.633 C78.42,53.012 78.536,51.673 78.641,50.784 C78.684,49.898 78.708,49.409 78.71,49.373 C78.71,49.307 78.708,48.828 78.641,47.989 C78.552,47.089 78.412,45.751 77.891,44.139 C77.364,42.529 76.535,40.647 75.074,38.812 C73.66,36.981 71.644,35.229 69.123,34.082 C67.873,33.502 66.513,33.032 65.099,32.749 C64.022,32.555 62.867,32.447 61.723,32.447 C61.367,32.447 61.013,32.457 60.662,32.479 C57.663,32.66 54.687,33.646 52.169,35.309 C51.861,35.506 51.689,35.641 51.372,35.862 C49.41,36.236 47.584,36.944 46.128,37.961 C38.078,43.586 40.725,55.069 46.95,60.806 C49.929,63.551 53.824,66.402 57.991,66.716" id="Fill-347" fill="#680001"></path>
                <path d="M58.745,70.287 C58.082,70.287 57.412,70.257 56.741,70.194 L56.769,69.961 C50.454,69.2 44.754,65.501 41.522,60.068 C35.889,50.599 39.021,38.307 48.502,32.667 C51.596,30.827 55.114,29.854 58.677,29.854 C60.126,29.854 61.581,30.014 63,30.33 L63.12,29.788 C65.711,30.307 68.084,31.273 70.081,32.539 C72.642,34.142 74.592,36.187 75.947,38.218 C77.316,40.239 78.12,42.262 78.588,43.941 C79.058,45.632 79.208,47.009 79.274,47.944 C79.332,48.88 79.32,49.381 79.32,49.381 L79.32,49.391 C79.32,49.391 79.304,49.884 79.275,50.808 C79.193,51.752 79.065,53.129 78.615,54.824 C78.167,56.515 77.386,58.52 76.094,60.596 C74.801,62.664 72.951,64.782 70.494,66.536 C70.192,66.762 69.862,66.954 69.542,67.167 L69.3,67.324 L69.159,67.413 L69.034,67.48 L68.528,67.75 C68.189,67.931 67.846,68.114 67.501,68.299 C67.15,68.477 66.758,68.615 66.382,68.777 C64.871,69.443 63.231,69.815 61.524,70.112 C60.618,70.226 59.688,70.287 58.745,70.287 M58.95,29.965 C55.335,29.965 51.756,30.957 48.601,32.834 C44.025,35.556 40.817,39.834 39.569,44.88 C38.322,49.922 39.146,55.238 41.889,59.849 C45.613,66.109 52.312,69.999 59.372,69.999 C62.784,69.999 66.151,69.068 69.109,67.309 C73.678,64.591 76.902,60.194 78.187,54.928 C79.472,49.668 78.666,44.226 75.918,39.607 C72.326,33.569 65.983,29.965 58.95,29.965" id="Fill-348" fill="#7F030B"></path>
                <path d="M56.741,70.194 C54.759,70.009 52.758,69.54 50.839,68.721 C49.946,68.4 49.126,67.902 48.268,67.466 C47.472,66.928 46.623,66.447 45.889,65.801 C44.343,64.608 42.997,63.128 41.86,61.495 C39.544,58.251 38.223,54.224 38.158,50.161 C38.105,46.098 39.321,42.045 41.51,38.712 C43.705,35.371 46.868,32.816 50.303,31.248 C53.112,29.959 56.117,29.375 58.994,29.375 C59.647,29.375 60.294,29.405 60.93,29.464 C61.675,29.536 62.406,29.645 63.12,29.788 L63,30.33 C61.581,30.014 60.126,29.854 58.677,29.854 C55.114,29.854 51.596,30.827 48.502,32.667 C39.021,38.307 35.889,50.599 41.522,60.068 C44.754,65.501 50.454,69.2 56.769,69.961 L56.741,70.194" id="Fill-349" fill="#640209"></path>
                <path d="M58.677,22.231 C53.743,22.231 48.877,23.574 44.605,26.115 C31.511,33.905 27.189,50.884 34.97,63.965 C40.021,72.456 49.301,77.73 59.188,77.73 C64.079,77.73 68.872,76.417 73.05,73.932 C79.39,70.16 83.841,64.066 85.584,56.771 C87.306,49.565 86.175,42.1 82.398,35.751 C77.437,27.412 68.348,22.231 58.677,22.231 M58.677,26.805 C66.52,26.805 74.153,30.837 78.467,38.09 C84.979,49.035 81.657,63.49 70.711,70.001 C67.106,72.146 63.131,73.157 59.188,73.157 C51.161,73.157 43.268,68.966 38.901,61.627 C32.39,50.681 35.998,36.558 46.943,30.047 C50.636,27.85 54.683,26.805 58.677,26.805" id="Fill-350" fill="#FFFFFF"></path>
                <path d="M58.743,66.745 C58.492,66.745 58.241,66.735 57.991,66.716 C56.082,66.317 54.233,65.603 52.579,64.572 C51.917,64.231 51.341,63.732 50.733,63.318 C50.188,62.802 49.597,62.364 49.124,61.787 C48.599,61.275 48.152,60.69 47.694,60.127 C47.472,59.839 47.295,59.513 47.09,59.214 L46.777,58.771 L46.517,58.29 C45.072,55.769 44.265,52.92 44.252,50.08 C44.171,47.182 44.912,44.358 46.226,41.789 C46.906,40.513 47.756,39.316 48.754,38.221 C48.998,37.94 49.25,37.665 49.524,37.413 C49.785,37.143 50.065,36.894 50.355,36.655 L50.569,36.471 L50.677,36.378 L50.703,36.355 C50.706,36.353 50.707,36.353 50.706,36.353 C50.704,36.353 50.684,36.364 50.663,36.375 C50.642,36.386 50.622,36.398 50.621,36.398 C50.62,36.398 50.628,36.393 50.647,36.381 L50.719,36.33 L51.291,35.919 C51.319,35.899 51.346,35.88 51.372,35.862 C52.449,35.657 53.566,35.553 54.686,35.553 C60.057,35.553 65.486,37.957 66.72,43.205 C66.841,43.717 66.477,44.02 66.094,44.02 C65.831,44.02 65.559,43.877 65.428,43.561 C63.957,40.006 60.502,38.458 56.908,38.458 C53.107,38.458 49.151,40.189 47.222,43.106 C44.409,47.359 45.995,53.005 49.323,56.43 C51.05,58.207 54.653,60.191 57.591,60.191 C59.581,60.191 61.266,59.281 61.858,56.782 C62.97,52.086 59.496,48.308 55.333,47.083 C55.003,46.986 54.934,46.525 55.237,46.348 C57.299,45.142 59.265,44.15 61.197,44.15 C62.712,44.15 64.206,44.76 65.709,46.354 C68.78,49.612 69.732,55.052 68.495,59.267 C67.269,63.442 63.863,66.363 59.519,66.713 C59.259,66.734 59.001,66.745 58.743,66.745" id="Fill-351" fill="#D61426"></path>
                <path d="M57.991,66.716 C53.824,66.402 49.929,63.551 46.95,60.806 C40.725,55.069 38.078,43.586 46.128,37.961 C47.584,36.944 49.41,36.236 51.372,35.862 C51.346,35.88 51.319,35.899 51.291,35.919 L50.719,36.33 L50.647,36.381 C50.628,36.393 50.62,36.398 50.621,36.398 C50.622,36.398 50.642,36.386 50.663,36.375 C50.684,36.364 50.704,36.353 50.706,36.353 C50.707,36.353 50.706,36.353 50.703,36.355 L50.677,36.378 L50.569,36.471 L50.355,36.655 C50.065,36.894 49.785,37.143 49.524,37.413 C49.25,37.665 48.998,37.94 48.754,38.221 C47.756,39.316 46.906,40.513 46.226,41.789 C44.912,44.358 44.171,47.182 44.252,50.08 C44.265,52.92 45.072,55.769 46.517,58.29 L46.777,58.771 L47.09,59.214 C47.295,59.513 47.472,59.839 47.694,60.127 C48.152,60.69 48.599,61.275 49.124,61.787 C49.597,62.364 50.188,62.802 50.733,63.318 C51.341,63.732 51.917,64.231 52.579,64.572 C54.233,65.603 56.082,66.317 57.991,66.716" id="Fill-352" fill="#BC101A"></path>
                <path d="M53.865,39.72 C54.676,39.72 54.677,38.46 53.865,38.46 C53.055,38.46 53.054,39.72 53.865,39.72" id="Fill-353" fill="#F29100"></path>
                <path d="M45.133,50.482 L45.015,50.533 C44.221,50.873 44.155,52.029 44.615,52.625 C45.177,53.352 46.073,53.296 46.74,52.769 L46.838,52.692 C47.38,52.264 47.34,51.338 46.948,50.845 C46.476,50.253 45.798,50.197 45.133,50.482" id="Fill-354" fill="#F29100"></path>
                <path d="M66.467,47.848 L66.401,47.939 C66.11,48.338 66.215,48.984 66.5,49.341 C66.846,49.776 67.298,49.865 67.827,49.794 L67.95,49.777 C68.899,49.65 69.132,48.363 68.632,47.715 C68.032,46.938 67.001,47.115 66.467,47.848" id="Fill-355" fill="#F29100"></path>
                <path d="M67.684,39.681 C68.581,39.681 69.441,38.892 69.4,37.965 C69.358,37.036 68.646,36.25 67.684,36.25 C66.787,36.25 65.928,37.039 65.969,37.965 C66.011,38.895 66.723,39.681 67.684,39.681" id="Fill-356" fill="#F29100"></path>
                <path d="M58.282,59.775 C60.317,59.775 60.32,56.613 58.282,56.613 C56.247,56.613 56.244,59.775 58.282,59.775" id="Fill-357" fill="#F29100"></path>
                <path d="M51.459,66.039 C53.287,66.039 53.29,63.198 51.459,63.198 C49.631,63.198 49.628,66.039 51.459,66.039" id="Fill-358" fill="#F29100"></path>
                <path d="M67.025,63.232 C68.025,63.232 68.027,61.677 67.025,61.677 C66.025,61.677 66.023,63.232 67.025,63.232" id="Fill-359" fill="#F29100"></path>
            </g>
        </g>
    </g>
</svg>